<svg xmlns="http://www.w3.org/2000/svg" xmlns:xlink="http://www.w3.org/1999/xlink" width="1366" zoomAndPan="magnify" viewBox="0 0 1024.5 576" height="768" preserveAspectRatio="xMidYMid meet" version="1.0"><defs><g/></defs><g fill="#000000" fill-opacity="1"><g transform="translate(104.095613, 383.7164)"><g><path d="M 239.1875 -47.21875 C 238.59375 -39.789062 235.695312 -33.328125 230.5 -27.828125 C 225.300781 -22.335938 218.914062 -17.738281 211.34375 -14.03125 C 203.769531 -10.320312 195.75 -7.578125 187.28125 -5.796875 C 178.820312 -4.015625 171.179688 -3.125 164.359375 -3.125 C 144.160156 -3.125 126.046875 -7.945312 110.015625 -17.59375 C 93.984375 -27.238281 80.320312 -39.707031 69.03125 -55 C 57.75 -70.300781 48.84375 -87.300781 42.3125 -106 C 36.070312 -124.113281 32.507812 -141.929688 31.625 -159.453125 C 32.21875 -141.335938 35.632812 -123.078125 41.875 -104.671875 C 48.40625 -85.671875 57.3125 -68.445312 68.59375 -53 C 79.875 -37.5625 93.679688 -25.015625 110.015625 -15.359375 C 126.347656 -5.710938 144.757812 -0.890625 165.25 -0.890625 C 176.53125 -0.890625 187.515625 -2.671875 198.203125 -6.234375 C 208.890625 -9.796875 218.835938 -14.695312 228.046875 -20.9375 C 221.210938 -10.539062 212.15625 -3.117188 200.875 1.328125 C 189.59375 5.785156 178.015625 8.015625 166.140625 8.015625 C 152.773438 8.015625 140.453125 6.15625 129.171875 2.4375 C 117.890625 -1.269531 106.898438 -7.128906 96.203125 -15.140625 L 94.421875 -22.265625 C 82.253906 -29.691406 71.789062 -38.894531 63.03125 -49.875 C 54.269531 -60.863281 47.140625 -72.742188 41.640625 -85.515625 C 36.148438 -98.285156 32.140625 -111.644531 29.609375 -125.59375 C 27.085938 -139.550781 25.828125 -153.507812 25.828125 -167.46875 C 25.828125 -182.320312 27.238281 -197.097656 30.0625 -211.796875 C 32.882812 -226.492188 36.820312 -240.96875 41.875 -255.21875 C 40.6875 -255.21875 40.09375 -255.660156 40.09375 -256.546875 C 33.851562 -242.890625 29.25 -228.785156 26.28125 -214.234375 C 23.3125 -199.691406 21.828125 -184.847656 21.828125 -169.703125 C 21.828125 -140.898438 27.46875 -113.207031 38.75 -86.625 C 50.03125 -60.050781 66.804688 -37.5625 89.078125 -19.15625 C 77.492188 -28.0625 67.320312 -38.300781 58.5625 -49.875 C 49.8125 -61.457031 42.613281 -73.851562 36.96875 -87.0625 C 31.320312 -100.28125 27.085938 -114.015625 24.265625 -128.265625 C 21.453125 -142.523438 20.046875 -156.929688 20.046875 -171.484375 C 20.046875 -191.078125 22.789062 -211.046875 28.28125 -231.390625 C 33.769531 -251.734375 42.082031 -270.21875 53.21875 -286.84375 C 64.351562 -303.46875 78.234375 -317.050781 94.859375 -327.59375 C 111.492188 -338.132812 130.945312 -343.40625 153.21875 -343.40625 C 163.3125 -343.40625 172.882812 -341.769531 181.9375 -338.5 C 191 -335.238281 199.535156 -330.9375 207.546875 -325.59375 C 215.566406 -320.25 223.066406 -314.160156 230.046875 -307.328125 C 237.023438 -300.492188 243.632812 -293.515625 249.875 -286.390625 L 240.515625 -278.375 C 236.359375 -279.863281 232.425781 -282.164062 228.71875 -285.28125 C 225.007812 -288.394531 221.664062 -291.585938 218.6875 -294.859375 L 216.015625 -291.734375 C 219.878906 -287.285156 223.441406 -282.164062 226.703125 -276.375 C 229.972656 -270.582031 231.609375 -264.566406 231.609375 -258.328125 L 226.71875 -250.3125 C 222.851562 -250.613281 218.023438 -252.914062 212.234375 -257.21875 C 206.441406 -261.53125 200.054688 -266.132812 193.078125 -271.03125 C 186.097656 -275.925781 178.972656 -280.453125 171.703125 -284.609375 C 164.429688 -288.765625 157.378906 -290.84375 150.546875 -290.84375 C 141.640625 -290.84375 133.695312 -288.613281 126.71875 -284.15625 C 119.738281 -279.707031 113.425781 -273.921875 107.78125 -266.796875 C 102.144531 -259.671875 97.320312 -251.503906 93.3125 -242.296875 C 89.300781 -233.097656 86.035156 -223.742188 83.515625 -214.234375 C 80.992188 -204.734375 79.0625 -195.453125 77.71875 -186.390625 C 76.382812 -177.335938 75.71875 -169.398438 75.71875 -162.578125 C 75.71875 -150.992188 77.570312 -138.222656 81.28125 -124.265625 C 85 -110.304688 90.492188 -97.3125 97.765625 -85.28125 C 105.035156 -73.257812 114.015625 -63.238281 124.703125 -55.21875 C 135.398438 -47.207031 147.578125 -43.203125 161.234375 -43.203125 C 167.472656 -43.203125 173.929688 -43.867188 180.609375 -45.203125 C 187.296875 -46.546875 193.3125 -48.847656 198.65625 -52.109375 L 202.21875 -48.109375 C 190.925781 -39.492188 178.007812 -35.1875 163.46875 -35.1875 C 149.207031 -35.1875 136.140625 -38.601562 124.265625 -45.4375 C 129.910156 -41.570312 136.144531 -38.75 142.96875 -36.96875 C 150.394531 -34.882812 157.820312 -33.84375 165.25 -33.84375 C 178.90625 -33.84375 191.671875 -37.707031 203.546875 -45.4375 L 207.5625 -39.640625 C 210.53125 -42.910156 214.238281 -46.101562 218.6875 -49.21875 C 223.144531 -52.332031 227.75 -54.1875 232.5 -54.78125 Z M 69.03125 -136.734375 C 70.519531 -119.515625 75.570312 -103.035156 84.1875 -87.296875 C 92.789062 -71.859375 104.070312 -59.390625 118.03125 -49.890625 C 104.070312 -59.679688 93.085938 -72.300781 85.078125 -87.75 C 76.753906 -103.476562 71.40625 -119.804688 69.03125 -136.734375 Z M 69.03125 -136.734375 "/></g></g></g><g fill="#ff6100" fill-opacity="1"><g transform="translate(71.806303, 523.907742)"><g><path d="M 268.140625 15.59375 C 265.765625 15.59375 262.867188 14.625 259.453125 12.6875 C 256.035156 10.757812 254.328125 8.3125 254.328125 5.34375 C 254.328125 0.289062 254.921875 -4.53125 256.109375 -9.125 C 257.304688 -13.726562 258.203125 -18.40625 258.796875 -23.15625 L 257.015625 -21.828125 L 251.65625 3.5625 C 248.09375 -1.488281 246.3125 -6.535156 246.3125 -11.578125 C 246.3125 -12.765625 246.609375 -13.953125 247.203125 -15.140625 C 241.566406 -12.472656 235.851562 -10.25 230.0625 -8.46875 C 224.269531 -6.6875 218.253906 -5.796875 212.015625 -5.796875 C 195.984375 -5.796875 180.914062 -7.875 166.8125 -12.03125 C 152.707031 -16.1875 138.523438 -21.378906 124.265625 -27.609375 L 122.046875 -33.40625 C 107.796875 -39.34375 94.65625 -47.359375 82.625 -57.453125 C 70.601562 -67.554688 60.210938 -79.066406 51.453125 -91.984375 C 42.691406 -104.898438 35.859375 -118.78125 30.953125 -133.625 C 26.054688 -148.46875 23.609375 -163.613281 23.609375 -179.0625 C 23.609375 -192.425781 25.460938 -205.488281 29.171875 -218.25 C 32.890625 -231.019531 38.457031 -242.898438 45.875 -253.890625 L 43.203125 -255.234375 C 36.078125 -244.242188 30.359375 -232.507812 26.046875 -220.03125 C 21.742188 -207.5625 19.59375 -194.644531 19.59375 -181.28125 C 19.59375 -168.21875 21.375 -155.078125 24.9375 -141.859375 C 28.5 -128.648438 33.546875 -115.957031 40.078125 -103.78125 C 46.617188 -91.601562 54.34375 -80.320312 63.25 -69.9375 C 72.15625 -60.132812 81.953125 -51.671875 92.640625 -44.546875 C 82.253906 -51.078125 72.457031 -59.09375 63.25 -68.59375 C 54.039062 -78.6875 46.09375 -89.742188 39.40625 -101.765625 C 32.726562 -113.796875 27.457031 -126.421875 23.59375 -139.640625 C 19.738281 -152.859375 17.8125 -165.703125 17.8125 -178.171875 C 17.8125 -200.140625 22.785156 -220.40625 32.734375 -238.96875 C 42.679688 -257.53125 55.671875 -273.488281 71.703125 -286.84375 C 87.742188 -300.207031 105.929688 -310.675781 126.265625 -318.25 C 146.609375 -325.820312 167.175781 -329.609375 187.96875 -329.609375 C 201.332031 -329.609375 214.175781 -327.828125 226.5 -324.265625 C 238.820312 -320.703125 251.21875 -316.84375 263.6875 -312.6875 C 262.207031 -311.789062 261.390625 -310.597656 261.234375 -309.109375 C 261.085938 -307.628906 260.863281 -306.222656 260.5625 -304.890625 C 260.269531 -303.554688 259.753906 -302.441406 259.015625 -301.546875 C 258.273438 -300.660156 256.710938 -300.21875 254.328125 -300.21875 C 250.472656 -300.21875 246.6875 -300.8125 242.96875 -302 C 239.257812 -303.1875 235.773438 -304.519531 232.515625 -306 L 231.171875 -300.21875 C 233.253906 -299.625 236 -298.4375 239.40625 -296.65625 C 242.820312 -294.875 246.238281 -292.867188 249.65625 -290.640625 C 253.070312 -288.410156 256.039062 -285.957031 258.5625 -283.28125 C 261.09375 -280.613281 262.359375 -278.09375 262.359375 -275.71875 C 262.359375 -272.15625 260.945312 -270 258.125 -269.25 C 255.300781 -268.507812 252.550781 -268.140625 249.875 -268.140625 C 240.96875 -268.140625 232.0625 -269.472656 223.15625 -272.140625 C 214.25 -274.816406 205.34375 -276.15625 196.4375 -276.15625 C 180.394531 -276.15625 164.953125 -273.925781 150.109375 -269.46875 C 135.265625 -265.019531 122.195312 -258.5625 110.90625 -250.09375 C 99.625 -241.632812 90.566406 -231.242188 83.734375 -218.921875 C 76.910156 -206.597656 73.5 -192.421875 73.5 -176.390625 C 73.5 -160.054688 77.503906 -144.6875 85.515625 -130.28125 C 93.535156 -115.882812 103.851562 -103.265625 116.46875 -92.421875 C 129.09375 -81.585938 143.273438 -73.050781 159.015625 -66.8125 C 174.753906 -60.570312 190.34375 -57.453125 205.78125 -57.453125 C 206.96875 -57.453125 208.820312 -57.523438 211.34375 -57.671875 C 213.875 -57.828125 216.625 -57.90625 219.59375 -57.90625 C 223.75 -57.90625 227.535156 -57.53125 230.953125 -56.78125 C 234.367188 -56.039062 236.222656 -54.484375 236.515625 -52.109375 C 232.359375 -51.515625 228.050781 -50.847656 223.59375 -50.109375 C 219.144531 -49.367188 214.84375 -49 210.6875 -49 C 198.507812 -49 185.890625 -50.628906 172.828125 -53.890625 C 186.785156 -49.734375 200.738281 -47.65625 214.6875 -47.65625 C 217.957031 -47.65625 221.375 -47.800781 224.9375 -48.09375 C 228.5 -48.394531 231.914062 -48.84375 235.1875 -49.4375 L 239.640625 -44.09375 C 242.304688 -44.6875 244.53125 -45.054688 246.3125 -45.203125 C 248.09375 -45.359375 251.210938 -46.328125 255.671875 -48.109375 C 255.671875 -57.609375 256.113281 -66.882812 257 -75.9375 C 257.894531 -85 258.34375 -94.28125 258.34375 -103.78125 L 258.34375 -110.015625 C 258.34375 -115.359375 257.972656 -121.070312 257.234375 -127.15625 C 256.492188 -133.25 254.335938 -138.078125 250.765625 -141.640625 L 248.09375 -140.3125 C 251.0625 -133.476562 252.992188 -126.203125 253.890625 -118.484375 C 254.785156 -110.765625 255.234375 -103.039062 255.234375 -95.3125 C 255.234375 -82.550781 254.335938 -70.226562 252.546875 -58.34375 C 253.441406 -68.144531 253.890625 -77.945312 253.890625 -87.75 C 253.890625 -89.820312 253.664062 -93.898438 253.21875 -99.984375 C 252.769531 -106.078125 252.097656 -112.316406 251.203125 -118.703125 C 250.316406 -125.085938 249.207031 -130.800781 247.875 -135.84375 C 246.539062 -140.894531 245.128906 -143.421875 243.640625 -143.421875 C 236.515625 -143.421875 229.3125 -144.015625 222.03125 -145.203125 C 214.757812 -146.390625 207.5625 -146.984375 200.4375 -146.984375 L 198.21875 -146.984375 L 186.1875 -146.546875 C 186.1875 -147.429688 186.109375 -148.46875 185.953125 -149.65625 C 185.804688 -150.84375 185.734375 -152.03125 185.734375 -153.21875 C 185.734375 -155.59375 186.175781 -157.820312 187.0625 -159.90625 C 187.957031 -161.988281 190.039062 -163.03125 193.3125 -163.03125 L 198.65625 -162.578125 L 198.65625 -167.921875 C 194.5 -169.109375 190.265625 -171.035156 185.953125 -173.703125 C 181.648438 -176.378906 179.5 -180.242188 179.5 -185.296875 C 179.5 -188.859375 181.429688 -191.675781 185.296875 -193.75 C 189.160156 -195.832031 193.6875 -197.394531 198.875 -198.4375 C 204.070312 -199.476562 209.191406 -200.144531 214.234375 -200.4375 C 219.285156 -200.738281 223.148438 -200.890625 225.828125 -200.890625 C 252.847656 -200.890625 273.257812 -193.910156 287.0625 -179.953125 C 300.875 -165.992188 307.78125 -145.503906 307.78125 -118.484375 C 307.78125 -100.660156 306.296875 -82.914062 303.328125 -65.25 C 300.359375 -47.582031 298.875 -29.84375 298.875 -12.03125 C 298.875 -8.164062 298.351562 -4.597656 297.3125 -1.328125 C 296.28125 1.929688 293.390625 3.5625 288.640625 3.5625 L 290.859375 -28.5 L 286.859375 2.234375 C 285.960938 2.234375 285.066406 2.304688 284.171875 2.453125 C 283.285156 2.597656 282.394531 2.671875 281.5 2.671875 C 280.90625 2.671875 280.457031 2.597656 280.15625 2.453125 C 279.863281 2.304688 279.421875 2.234375 278.828125 2.234375 L 278.828125 8.90625 C 276.453125 13.363281 272.890625 15.59375 268.140625 15.59375 Z M 248.09375 -19.59375 C 242.75 -19.300781 237.476562 -18.707031 232.28125 -17.8125 C 227.09375 -16.925781 221.820312 -16.484375 216.46875 -16.484375 C 195.382812 -16.484375 174.445312 -19.972656 153.65625 -26.953125 C 132.875 -33.929688 113.945312 -43.726562 96.875 -56.34375 C 79.800781 -68.96875 65.175781 -84.1875 53 -102 C 44.394531 -114.769531 38.015625 -128.578125 33.859375 -143.421875 C 38.015625 -126.492188 44.988281 -111.203125 54.78125 -97.546875 C 67.550781 -79.140625 83.140625 -63.695312 101.546875 -51.21875 C 119.960938 -38.75 140.304688 -29.394531 162.578125 -23.15625 C 184.847656 -16.925781 207.269531 -13.8125 229.84375 -13.8125 L 232.515625 -13.8125 C 235.484375 -13.8125 238.300781 -14.109375 240.96875 -14.703125 C 243.644531 -15.296875 246.019531 -16.925781 248.09375 -19.59375 Z M 80.625 -114.921875 L 80.625 -114.03125 C 80.625 -111.0625 82.550781 -107.5 86.40625 -103.34375 C 90.269531 -99.1875 94.722656 -95.101562 99.765625 -91.09375 C 104.816406 -87.082031 109.789062 -83.367188 114.6875 -79.953125 C 119.59375 -76.535156 123.234375 -74.234375 125.609375 -73.046875 C 122.929688 -75.128906 119.441406 -77.800781 115.140625 -81.0625 C 110.835938 -84.332031 106.457031 -87.894531 102 -91.75 C 97.539062 -95.613281 93.304688 -99.550781 89.296875 -103.5625 C 85.296875 -107.570312 82.40625 -111.359375 80.625 -114.921875 Z M 261.46875 -47.21875 C 262.0625 -54.039062 262.953125 -60.644531 264.140625 -67.03125 C 265.328125 -73.414062 265.921875 -80.023438 265.921875 -86.859375 C 265.921875 -91.015625 265.769531 -95.019531 265.46875 -98.875 C 265.175781 -102.738281 264.582031 -106.75 263.6875 -110.90625 C 263.6875 -100.21875 263.535156 -89.523438 263.234375 -78.828125 C 262.941406 -68.140625 262.054688 -57.601562 260.578125 -47.21875 Z M 299.328125 -99.78125 C 295.765625 -90.863281 294.128906 -82.101562 294.421875 -73.5 C 294.722656 -65.476562 294.28125 -57.457031 293.09375 -49.4375 C 294.570312 -57.457031 295.757812 -65.625 296.65625 -73.9375 C 297.84375 -82.550781 298.734375 -91.164062 299.328125 -99.78125 Z M 31.171875 -156.34375 C 32.066406 -151.882812 32.960938 -147.578125 33.859375 -143.421875 C 32.960938 -147.578125 32.066406 -151.882812 31.171875 -156.34375 Z M 30.734375 -161.25 C 31.023438 -159.457031 31.171875 -157.820312 31.171875 -156.34375 C 30.878906 -157.820312 30.734375 -159.457031 30.734375 -161.25 Z M 30.734375 -161.25 "/></g></g></g><g fill="#000000" fill-opacity="1"><g transform="translate(336.411629, 337.125107)"><g><path d="M 50.390625 -115.796875 C 50.523438 -115.148438 51.234375 -114.828125 52.515625 -114.828125 L 52.890625 -114.828125 C 53.660156 -114.828125 54.175781 -114.765625 54.4375 -114.640625 C 61.101562 -112.585938 67.738281 -109.601562 74.34375 -105.6875 C 80.945312 -101.78125 86.910156 -97.101562 92.234375 -91.65625 C 97.554688 -86.207031 101.847656 -80.019531 105.109375 -73.09375 C 108.378906 -66.164062 110.015625 -58.726562 110.015625 -50.78125 C 110.015625 -43.851562 108.664062 -37.179688 105.96875 -30.765625 C 103.28125 -24.359375 99.566406 -18.785156 94.828125 -14.046875 C 99.703125 -18.273438 103.582031 -23.5625 106.46875 -29.90625 C 109.351562 -36.257812 110.796875 -43.085938 110.796875 -50.390625 C 110.796875 -58.597656 109.0625 -66.257812 105.59375 -73.375 C 102.132812 -80.488281 97.710938 -86.867188 92.328125 -92.515625 C 86.941406 -98.160156 80.945312 -103 74.34375 -107.03125 C 67.738281 -111.070312 61.296875 -114.1875 55.015625 -116.375 C 59.878906 -116.375 64.84375 -115.28125 69.90625 -113.09375 C 74.976562 -110.914062 79.820312 -108.0625 84.4375 -104.53125 C 89.050781 -101.007812 93.3125 -96.972656 97.21875 -92.421875 C 101.132812 -87.867188 104.441406 -83.21875 107.140625 -78.46875 L 105.78125 -76.546875 C 108.351562 -72.703125 110.3125 -68.535156 111.65625 -64.046875 C 113 -59.554688 113.671875 -54.941406 113.671875 -50.203125 C 113.671875 -41.097656 111.710938 -33.113281 107.796875 -26.25 C 103.890625 -19.394531 98.953125 -13.691406 92.984375 -9.140625 C 87.023438 -4.585938 80.488281 -1.160156 73.375 1.140625 C 66.257812 3.453125 59.5625 4.609375 53.28125 4.609375 C 49.6875 4.609375 46.0625 4.222656 42.40625 3.453125 C 38.757812 2.691406 35.078125 1.410156 31.359375 -0.390625 L 31.359375 0.765625 C 34.941406 2.816406 38.625 4.226562 42.40625 5 C 46.1875 5.769531 49.9375 6.15625 53.65625 6.15625 C 62.894531 6.15625 71.96875 4.132812 80.875 0.09375 C 89.789062 -3.945312 97.328125 -9.617188 103.484375 -16.921875 C 97.585938 -9.359375 90.242188 -3.460938 81.453125 0.765625 C 72.671875 4.992188 63.535156 7.109375 54.046875 7.109375 C 44.304688 7.109375 36.421875 5.21875 30.390625 1.4375 C 24.359375 -2.34375 19.644531 -6.988281 16.25 -12.5 C 12.851562 -18.007812 10.578125 -23.84375 9.421875 -30 C 8.265625 -36.15625 7.6875 -41.671875 7.6875 -46.546875 C 7.6875 -53.085938 8.550781 -59.5 10.28125 -65.78125 C 12.019531 -72.0625 14.679688 -77.832031 18.265625 -83.09375 C 21.859375 -88.351562 26.472656 -92.875 32.109375 -96.65625 C 37.753906 -100.4375 44.554688 -103.097656 52.515625 -104.640625 L 46.9375 -105.984375 C 44.238281 -106.617188 42.3125 -107.382812 41.15625 -108.28125 C 40.007812 -109.1875 39.4375 -109.957031 39.4375 -110.59375 C 39.4375 -111.625 40.554688 -112.75 42.796875 -113.96875 C 45.035156 -115.1875 47.566406 -115.796875 50.390625 -115.796875 Z M 41.734375 -91.5625 C 45.203125 -92.84375 48.535156 -93.484375 51.734375 -93.484375 C 54.941406 -93.484375 57.410156 -93 59.140625 -92.03125 C 60.878906 -91.070312 61.75 -90.082031 61.75 -89.0625 C 61.75 -88.414062 61.007812 -87.707031 59.53125 -86.9375 C 58.050781 -86.164062 56.191406 -85.109375 53.953125 -83.765625 C 51.710938 -82.421875 49.273438 -80.722656 46.640625 -78.671875 C 44.015625 -76.617188 41.578125 -74.019531 39.328125 -70.875 C 37.085938 -67.738281 35.226562 -63.925781 33.75 -59.4375 C 32.28125 -54.945312 31.546875 -49.6875 31.546875 -43.65625 C 31.546875 -34.8125 33.53125 -28.144531 37.5 -23.65625 C 41.476562 -19.164062 46.992188 -16.921875 54.046875 -16.921875 C 58.535156 -16.921875 63.117188 -17.691406 67.796875 -19.234375 C 72.484375 -20.773438 76.71875 -22.953125 80.5 -25.765625 C 84.28125 -28.585938 87.351562 -32.050781 89.71875 -36.15625 C 92.09375 -40.257812 93.28125 -44.878906 93.28125 -50.015625 C 93.28125 -53.859375 92.609375 -57.703125 91.265625 -61.546875 C 89.921875 -65.390625 88.0625 -69.078125 85.6875 -72.609375 C 83.3125 -76.140625 80.488281 -79.441406 77.21875 -82.515625 C 73.957031 -85.585938 70.398438 -88.21875 66.546875 -90.40625 C 62.828125 -92.457031 59.78125 -94.023438 57.40625 -95.109375 C 55.039062 -96.203125 53.34375 -97.257812 52.3125 -98.28125 C 51.289062 -97.769531 49.847656 -97.160156 47.984375 -96.453125 C 46.128906 -95.753906 43.660156 -94.695312 40.578125 -93.28125 Z M 54.625 -100.59375 C 60.519531 -98.664062 66.160156 -95.78125 71.546875 -91.9375 C 76.160156 -88.476562 80.394531 -84.695312 84.25 -80.59375 C 80.53125 -84.945312 76.488281 -88.859375 72.125 -92.328125 C 67.125 -96.429688 61.546875 -99.632812 55.390625 -101.9375 Z M 91.9375 -35 C 90.019531 -30.894531 87.328125 -27.242188 83.859375 -24.046875 C 86.171875 -25.578125 88.125 -27.429688 89.71875 -29.609375 C 91.320312 -31.796875 92.632812 -33.976562 93.65625 -36.15625 C 94.6875 -38.34375 95.460938 -40.332031 95.984375 -42.125 C 96.367188 -43.789062 96.6875 -45.132812 96.9375 -46.15625 C 95.53125 -42.820312 93.863281 -39.101562 91.9375 -35 Z M 104.828125 -18.46875 C 104.703125 -18.207031 104.507812 -17.953125 104.25 -17.703125 C 104.125 -17.566406 103.992188 -17.5 103.859375 -17.5 C 103.734375 -17.5 104.054688 -18.171875 104.828125 -19.515625 C 105.597656 -20.867188 106.523438 -22.472656 107.609375 -24.328125 C 108.703125 -26.191406 109.765625 -28.148438 110.796875 -30.203125 C 111.691406 -31.734375 112.332031 -33.078125 112.71875 -34.234375 C 110.914062 -28.722656 108.285156 -23.46875 104.828125 -18.46875 Z M 115.59375 -49.625 C 115.59375 -47.570312 115.460938 -45.550781 115.203125 -43.5625 C 114.953125 -41.570312 114.507812 -39.742188 113.875 -38.078125 C 114.769531 -41.285156 115.21875 -44.878906 115.21875 -48.859375 C 115.21875 -51.804688 114.957031 -54.691406 114.4375 -57.515625 C 114.0625 -59.953125 113.550781 -62.320312 112.90625 -64.625 C 113.550781 -62.320312 114.128906 -60.015625 114.640625 -57.703125 C 115.273438 -55.140625 115.59375 -52.445312 115.59375 -49.625 Z M 54.625 -103.671875 L 52.890625 -104.4375 C 52.765625 -104.1875 52.570312 -103.929688 52.3125 -103.671875 C 52.0625 -103.410156 51.9375 -103.15625 51.9375 -102.90625 C 51.9375 -102.644531 52.09375 -102.289062 52.40625 -101.84375 C 52.726562 -101.394531 53.019531 -101.039062 53.28125 -100.78125 Z M 85.40625 -79.25 C 85.019531 -79.757812 84.632812 -80.207031 84.25 -80.59375 C 84.632812 -80.082031 85.019531 -79.632812 85.40625 -79.25 Z M 112.71875 -34.234375 C 112.84375 -34.492188 112.90625 -34.75 112.90625 -35 C 112.90625 -34.75 112.84375 -34.492188 112.71875 -34.234375 Z M 113.09375 -35.390625 C 112.96875 -35.265625 112.90625 -35.132812 112.90625 -35 C 112.90625 -35.132812 112.96875 -35.265625 113.09375 -35.390625 Z M 113.09375 -35.390625 "/></g></g></g><g fill="#000000" fill-opacity="1"><g transform="translate(459.693205, 337.125107)"><g><path d="M 118.296875 -68.09375 C 115.722656 -65.78125 112.640625 -63.535156 109.046875 -61.359375 C 105.460938 -59.179688 101.742188 -57.160156 97.890625 -55.296875 C 94.046875 -53.441406 90.265625 -51.835938 86.546875 -50.484375 C 82.835938 -49.140625 79.503906 -48.082031 76.546875 -47.3125 C 73.597656 -46.414062 70.90625 -45.550781 68.46875 -44.71875 C 66.03125 -43.882812 63.722656 -42.953125 61.546875 -41.921875 C 59.367188 -40.898438 57.1875 -39.75 55 -38.46875 C 52.820312 -37.1875 50.582031 -35.648438 48.28125 -33.859375 C 46.613281 -32.566406 45.234375 -31.535156 44.140625 -30.765625 C 43.054688 -30.003906 42.160156 -29.363281 41.453125 -28.84375 C 40.742188 -28.332031 40.164062 -27.945312 39.71875 -27.6875 C 39.269531 -27.4375 38.851562 -27.179688 38.46875 -26.921875 L 45.390625 -26.34375 C 50.773438 -25.832031 55.96875 -25.285156 60.96875 -24.703125 C 65.96875 -24.128906 71.035156 -23.523438 76.171875 -22.890625 C 78.347656 -22.628906 79.628906 -22.46875 80.015625 -22.40625 C 80.398438 -22.34375 80.785156 -22.3125 81.171875 -22.3125 C 91.679688 -21.664062 99.050781 -21.179688 103.28125 -20.859375 C 107.519531 -20.546875 109.640625 -19.617188 109.640625 -18.078125 C 109.640625 -17.566406 109.570312 -17.25 109.4375 -17.125 C 104.1875 -17.375 99.09375 -17.851562 94.15625 -18.5625 C 89.21875 -19.269531 83.414062 -19.75 76.75 -20 C 74.175781 -20.382812 71.191406 -20.738281 67.796875 -21.0625 C 64.398438 -21.382812 60.875 -21.640625 57.21875 -21.828125 C 53.5625 -22.023438 49.90625 -22.1875 46.25 -22.3125 C 42.601562 -22.4375 39.175781 -22.5 35.96875 -22.5 C 33.019531 -22.5 30.390625 -22.46875 28.078125 -22.40625 C 25.773438 -22.34375 23.914062 -22.179688 22.5 -21.921875 C 25.96875 -21.921875 30.070312 -21.859375 34.8125 -21.734375 C 39.5625 -21.609375 44.4375 -21.445312 49.4375 -21.25 C 54.4375 -21.0625 59.335938 -20.804688 64.140625 -20.484375 C 68.953125 -20.160156 73.085938 -19.742188 76.546875 -19.234375 L 83.28125 -18.265625 C 87.769531 -17.628906 91.96875 -17.242188 95.875 -17.109375 C 99.789062 -16.984375 104.054688 -16.664062 108.671875 -16.15625 C 108.035156 -15.507812 107.71875 -14.867188 107.71875 -14.234375 C 107.71875 -13.078125 108.515625 -12.5625 110.109375 -12.6875 C 111.710938 -12.820312 113.988281 -12.695312 116.9375 -12.3125 C 119.507812 -11.28125 121.335938 -10.347656 122.421875 -9.515625 C 123.515625 -8.679688 124.0625 -7.878906 124.0625 -7.109375 C 124.0625 -6.347656 123.546875 -5.613281 122.515625 -4.90625 C 121.492188 -4.195312 120.210938 -3.648438 118.671875 -3.265625 L 113.875 -1.921875 C 108.613281 -2.816406 103.578125 -3.425781 98.765625 -3.75 C 93.960938 -4.070312 88.675781 -4.550781 82.90625 -5.1875 L 77.90625 -5.765625 C 73.800781 -6.285156 69.757812 -6.734375 65.78125 -7.109375 C 61.800781 -7.492188 57.695312 -7.878906 53.46875 -8.265625 L 33.078125 -9.8125 C 31.671875 -9.9375 30.132812 -10.03125 28.46875 -10.09375 C 26.800781 -10.15625 25.070312 -10.1875 23.28125 -10.1875 L 19.8125 -10.1875 C 18.65625 -10.1875 17.4375 -10.125 16.15625 -10 L 12.6875 -9.8125 L 12.6875 -24.625 C 12.6875 -28.59375 13.648438 -31.695312 15.578125 -33.9375 C 17.503906 -36.1875 19.617188 -37.890625 21.921875 -39.046875 C 23.078125 -39.679688 24.234375 -40.191406 25.390625 -40.578125 C 25.128906 -40.578125 24.875 -40.515625 24.625 -40.390625 C 22.695312 -39.753906 20.800781 -38.828125 18.9375 -37.609375 C 17.082031 -36.390625 15.484375 -34.753906 14.140625 -32.703125 C 12.796875 -30.648438 12.125 -27.957031 12.125 -24.625 L 11.921875 -9.421875 L 30.578125 -9.421875 L 42.3125 -8.84375 C 48.34375 -8.457031 54.207031 -7.941406 59.90625 -7.296875 C 65.613281 -6.660156 71.289062 -5.957031 76.9375 -5.1875 L 83.09375 -4.234375 C 87.96875 -3.722656 92.519531 -3.207031 96.75 -2.6875 C 100.976562 -2.175781 105.335938 -1.601562 109.828125 -0.96875 C 108.035156 -0.582031 106.078125 -0.226562 103.953125 0.09375 C 101.835938 0.414062 99.5 0.578125 96.9375 0.578125 C 94.5 0.578125 92.316406 0.445312 90.390625 0.1875 C 88.472656 -0.0625 86.234375 -0.316406 83.671875 -0.578125 L 77.515625 -1.34375 C 73.023438 -1.988281 68.726562 -2.535156 64.625 -2.984375 C 60.519531 -3.429688 56.097656 -3.910156 51.359375 -4.421875 L 50.203125 -6.546875 L 34.625 -6.546875 C 33.976562 -6.546875 33.269531 -6.507812 32.5 -6.4375 C 31.738281 -6.375 30.84375 -6.34375 29.8125 -6.34375 L 25 -6.34375 C 23.332031 -6.34375 21.664062 -6.375 20 -6.4375 C 18.332031 -6.507812 16.539062 -6.671875 14.625 -6.921875 L 9.234375 -7.6875 L 9.234375 -24.421875 C 9.234375 -28.660156 10.160156 -32.09375 12.015625 -34.71875 C 13.878906 -37.34375 16.03125 -39.425781 18.46875 -40.96875 C 20.90625 -42.507812 23.335938 -43.726562 25.765625 -44.625 C 28.203125 -45.519531 30.066406 -46.351562 31.359375 -47.125 L 35.78125 -50.59375 C 40.90625 -54.4375 46.285156 -57.832031 51.921875 -60.78125 C 57.566406 -63.726562 63.46875 -66.035156 69.625 -67.703125 L 72.515625 -68.46875 C 75.335938 -69.882812 78.347656 -71.101562 81.546875 -72.125 C 84.753906 -73.15625 87.769531 -74.4375 90.59375 -75.96875 L 90.015625 -76.9375 C 86.804688 -75.53125 83.566406 -74.3125 80.296875 -73.28125 C 77.035156 -72.257812 74.25 -71.171875 71.9375 -70.015625 L 69.046875 -69.25 C 62.640625 -67.445312 56.519531 -65.003906 50.6875 -61.921875 C 44.851562 -58.847656 39.5625 -55.453125 34.8125 -51.734375 L 30.96875 -48.46875 L 30.203125 -48.46875 C 29.816406 -48.46875 29.300781 -48.335938 28.65625 -48.078125 L 30.578125 -49.046875 C 37.503906 -54.941406 44.269531 -59.523438 50.875 -62.796875 C 57.476562 -66.066406 64.050781 -68.664062 70.59375 -70.59375 C 75.46875 -72.382812 79.441406 -73.757812 82.515625 -74.71875 C 85.585938 -75.6875 88.472656 -76.875 91.171875 -78.28125 C 86.171875 -79.4375 81.742188 -80.238281 77.890625 -80.6875 C 74.046875 -81.132812 70.457031 -81.359375 67.125 -81.359375 C 65.457031 -81.359375 63.851562 -81.328125 62.3125 -81.265625 C 60.78125 -81.203125 59.242188 -81.109375 57.703125 -80.984375 C 56.804688 -81.109375 55.910156 -81.171875 55.015625 -81.171875 L 52.515625 -81.171875 C 48.023438 -81.171875 43.695312 -80.71875 39.53125 -79.8125 C 35.363281 -78.914062 31.421875 -77.703125 27.703125 -76.171875 C 27.703125 -77.066406 27.347656 -77.800781 26.640625 -78.375 C 25.929688 -78.957031 25.578125 -79.695312 25.578125 -80.59375 C 25.578125 -81.363281 26.441406 -82.320312 28.171875 -83.46875 C 29.910156 -84.625 33.148438 -85.71875 37.890625 -86.75 L 37.5 -88.671875 C 33.144531 -88.023438 29.363281 -87.445312 26.15625 -86.9375 C 22.945312 -86.425781 20.253906 -86.171875 18.078125 -86.171875 C 16.671875 -86.171875 15.613281 -86.234375 14.90625 -86.359375 C 14.195312 -86.484375 13.71875 -86.929688 13.46875 -87.703125 C 13.46875 -87.960938 13.53125 -88.21875 13.65625 -88.46875 C 13.78125 -88.726562 13.84375 -88.988281 13.84375 -89.25 C 16.414062 -91.8125 19.554688 -94.085938 23.265625 -96.078125 C 26.984375 -98.066406 31.117188 -99.734375 35.671875 -101.078125 C 40.234375 -102.421875 45.078125 -103.445312 50.203125 -104.15625 C 55.328125 -104.863281 60.582031 -105.21875 65.96875 -105.21875 C 69.945312 -105.21875 74.40625 -104.894531 79.34375 -104.25 C 84.28125 -103.601562 89.757812 -102.769531 95.78125 -101.75 C 97.0625 -101.363281 98.210938 -101.007812 99.234375 -100.6875 C 100.265625 -100.375 101.359375 -100.023438 102.515625 -99.640625 C 103.671875 -99.253906 104.953125 -98.800781 106.359375 -98.28125 C 107.773438 -97.769531 109.507812 -97.128906 111.5625 -96.359375 C 111.425781 -96.492188 112.285156 -96.175781 114.140625 -95.40625 C 116.003906 -94.632812 117.898438 -93.222656 119.828125 -91.171875 Z M 7.6875 -24.421875 C 7.6875 -27.367188 8.039062 -29.804688 8.75 -31.734375 C 9.457031 -33.660156 10.453125 -35.328125 11.734375 -36.734375 C 10.703125 -35.191406 9.832031 -33.457031 9.125 -31.53125 C 8.425781 -29.613281 8.078125 -27.503906 8.078125 -25.203125 L 8.078125 -7.109375 L 14.046875 -5.96875 C 15.835938 -5.582031 17.628906 -5.320312 19.421875 -5.1875 C 21.222656 -5.0625 22.957031 -5 24.625 -5 C 26.414062 -5 28.015625 -5.03125 29.421875 -5.09375 C 30.835938 -5.15625 32.25 -5.1875 33.65625 -5.1875 L 48.46875 -5 L 33.859375 -4.8125 L 31.734375 -4.8125 C 30.578125 -4.8125 29.328125 -4.773438 27.984375 -4.703125 C 26.640625 -4.640625 25.195312 -4.609375 23.65625 -4.609375 C 22.25 -4.609375 20.710938 -4.671875 19.046875 -4.796875 C 17.378906 -4.929688 15.644531 -5.191406 13.84375 -5.578125 L 7.6875 -6.734375 Z M 27.125 -47.125 L 23.078125 -44.4375 C 21.535156 -43.40625 19.707031 -42.375 17.59375 -41.34375 C 15.476562 -40.320312 13.523438 -38.785156 11.734375 -36.734375 C 14.171875 -40.328125 17.117188 -42.988281 20.578125 -44.71875 C 24.046875 -46.445312 26.738281 -47.566406 28.65625 -48.078125 Z M 36.15625 -30.96875 C 34.363281 -30.96875 32.789062 -30.289062 31.4375 -28.9375 C 30.09375 -27.59375 29.039062 -26.664062 28.28125 -26.15625 L 28.65625 -25.96875 C 29.300781 -26.351562 30.519531 -27.054688 32.3125 -28.078125 C 34.101562 -29.109375 36.023438 -30.195312 38.078125 -31.34375 C 40.128906 -32.5 42.117188 -33.625 44.046875 -34.71875 C 45.972656 -35.8125 47.445312 -36.675781 48.46875 -37.3125 C 47.832031 -36.925781 46.90625 -36.441406 45.6875 -35.859375 C 44.46875 -35.285156 43.210938 -34.675781 41.921875 -34.03125 C 40.640625 -33.394531 39.453125 -32.789062 38.359375 -32.21875 C 37.273438 -31.644531 36.539062 -31.226562 36.15625 -30.96875 Z M 28.84375 -41.9375 C 31.03125 -42.695312 32.441406 -43.65625 33.078125 -44.8125 L 34.234375 -45.578125 C 36.546875 -47.378906 38.953125 -49.269531 41.453125 -51.25 C 43.953125 -53.238281 46.546875 -55.066406 49.234375 -56.734375 C 45.648438 -54.941406 42.378906 -52.726562 39.421875 -50.09375 C 36.472656 -47.46875 33.140625 -45.003906 29.421875 -42.703125 C 28.785156 -42.316406 28.082031 -41.929688 27.3125 -41.546875 C 27.820312 -41.671875 28.332031 -41.800781 28.84375 -41.9375 Z M 28.84375 -41.9375 "/></g></g></g><g fill="#000000" fill-opacity="1"><g transform="translate(591.437176, 337.125107)"><g><path d="M 14.625 -10 C 15.132812 -13.59375 15.613281 -17.789062 16.0625 -22.59375 C 16.507812 -27.40625 16.925781 -32.25 17.3125 -37.125 C 17.695312 -42 18.082031 -46.773438 18.46875 -51.453125 C 18.851562 -56.128906 19.238281 -60.203125 19.625 -63.671875 C 18.976562 -60.203125 18.398438 -56.222656 17.890625 -51.734375 C 17.378906 -47.253906 16.863281 -42.640625 16.34375 -37.890625 C 15.832031 -33.148438 15.320312 -28.4375 14.8125 -23.75 C 14.300781 -19.070312 13.851562 -14.875 13.46875 -11.15625 C 11.539062 -12.4375 10.578125 -14.164062 10.578125 -16.34375 C 10.578125 -18.914062 10.640625 -21.066406 10.765625 -22.796875 C 10.898438 -24.523438 11.09375 -26.539062 11.34375 -28.84375 L 13.46875 -30.78125 C 13.332031 -31.414062 13.265625 -31.988281 13.265625 -32.5 L 13.265625 -34.421875 C 13.265625 -37.378906 13.582031 -40.75 14.21875 -44.53125 C 14.863281 -48.3125 15.601562 -52.15625 16.4375 -56.0625 C 17.28125 -59.976562 18.019531 -63.757812 18.65625 -67.40625 C 19.300781 -71.0625 19.625 -74.238281 19.625 -76.9375 L 17.3125 -77.515625 C 17.050781 -74.429688 16.664062 -70.9375 16.15625 -67.03125 C 15.644531 -63.125 15.097656 -59.082031 14.515625 -54.90625 C 13.941406 -50.738281 13.398438 -46.609375 12.890625 -42.515625 C 12.628906 -40.328125 12.375 -38.273438 12.125 -36.359375 C 12.375 -39.941406 12.691406 -43.785156 13.078125 -47.890625 C 13.722656 -53.785156 14.394531 -59.648438 15.09375 -65.484375 C 15.800781 -71.328125 16.472656 -77.066406 17.109375 -82.703125 C 17.753906 -88.347656 18.398438 -93.539062 19.046875 -98.28125 C 19.046875 -100.207031 19.523438 -102.289062 20.484375 -104.53125 C 21.441406 -106.78125 22.113281 -109.125 22.5 -111.5625 C 23.269531 -111.300781 23.910156 -111.171875 24.421875 -111.171875 L 25.78125 -111.171875 C 27.0625 -111.171875 27.890625 -110.878906 28.265625 -110.296875 C 28.648438 -109.722656 28.84375 -108.925781 28.84375 -107.90625 L 28.84375 -106.9375 L 30.578125 -106.359375 C 31.609375 -108.285156 32.828125 -109.828125 34.234375 -110.984375 C 35.648438 -112.140625 37.0625 -112.71875 38.46875 -112.71875 C 41.539062 -112.71875 43.078125 -109.445312 43.078125 -102.90625 C 43.078125 -99.4375 42.722656 -95.75 42.015625 -91.84375 C 41.316406 -87.9375 40.96875 -84.125 40.96875 -80.40625 L 40.96875 -77.90625 C 40.96875 -73.800781 40.519531 -69.34375 39.625 -64.53125 C 38.726562 -59.71875 37.734375 -54.84375 36.640625 -49.90625 C 35.546875 -44.976562 34.550781 -40.203125 33.65625 -35.578125 C 32.757812 -30.960938 32.3125 -26.734375 32.3125 -22.890625 C 32.3125 -21.992188 32.375 -21.03125 32.5 -20 C 32.632812 -18.976562 32.703125 -18.019531 32.703125 -17.125 C 32.703125 -15.195312 32.347656 -14.007812 31.640625 -13.5625 C 30.929688 -13.113281 30.066406 -12.890625 29.046875 -12.890625 C 29.046875 -14.554688 28.976562 -16.609375 28.84375 -19.046875 C 28.71875 -21.484375 28.65625 -23.660156 28.65625 -25.578125 C 28.40625 -24.171875 28.28125 -22.25 28.28125 -19.8125 C 28.28125 -17.375 28.148438 -15.066406 27.890625 -12.890625 L 25 -12.890625 L 25 -10.578125 C 23.851562 -8.523438 22.316406 -7.5 20.390625 -7.5 C 19.492188 -7.5 18.46875 -7.753906 17.3125 -8.265625 C 16.15625 -8.785156 15.257812 -9.363281 14.625 -10 Z M 54.234375 -157.71875 C 52.054688 -156.4375 50.066406 -154.769531 48.265625 -152.71875 C 46.472656 -150.664062 44.617188 -148.679688 42.703125 -146.765625 C 43.859375 -147.523438 44.882812 -148.351562 45.78125 -149.25 C 46.675781 -150.15625 47.601562 -151.054688 48.5625 -151.953125 C 49.53125 -152.847656 50.554688 -153.742188 51.640625 -154.640625 C 52.734375 -155.535156 53.984375 -156.367188 55.390625 -157.140625 C 55.773438 -156.628906 56.128906 -156.179688 56.453125 -155.796875 C 56.773438 -155.410156 56.9375 -155.023438 56.9375 -154.640625 L 52.515625 -150.21875 C 52.515625 -150.476562 52.285156 -150.734375 51.828125 -150.984375 C 51.378906 -151.242188 51.03125 -151.375 50.78125 -151.375 C 50.394531 -150.09375 49.753906 -149.066406 48.859375 -148.296875 C 47.960938 -147.523438 47.0625 -146.816406 46.15625 -146.171875 C 45.257812 -145.535156 44.363281 -144.832031 43.46875 -144.0625 C 42.570312 -143.289062 41.929688 -142.265625 41.546875 -140.984375 L 41.546875 -140.609375 C 41.546875 -140.472656 41.738281 -140.40625 42.125 -140.40625 L 51.734375 -149.453125 L 48.078125 -145.796875 C 46.285156 -144.003906 44.394531 -142.175781 42.40625 -140.3125 C 40.425781 -138.457031 38.566406 -136.820312 36.828125 -135.40625 C 35.097656 -134 34.039062 -133.296875 33.65625 -133.296875 L 33.46875 -133.484375 C 32.570312 -133.742188 31.640625 -133.875 30.671875 -133.875 C 29.710938 -133.875 28.722656 -133.9375 27.703125 -134.0625 C 27.703125 -135.09375 27.539062 -136.179688 27.21875 -137.328125 C 26.894531 -138.484375 26.734375 -139.382812 26.734375 -140.03125 C 26.734375 -140.664062 27.054688 -140.984375 27.703125 -140.984375 C 27.703125 -141.367188 27.472656 -141.976562 27.015625 -142.8125 C 26.566406 -143.644531 26.085938 -144.601562 25.578125 -145.6875 C 25.066406 -146.78125 24.585938 -147.9375 24.140625 -149.15625 C 23.691406 -150.375 23.46875 -151.625 23.46875 -152.90625 C 23.46875 -154.195312 24.007812 -155.445312 25.09375 -156.65625 C 26.1875 -157.875 27.46875 -158.929688 28.9375 -159.828125 C 30.414062 -160.734375 31.859375 -161.503906 33.265625 -162.140625 C 34.679688 -162.785156 35.710938 -163.234375 36.359375 -163.484375 C 36.867188 -163.484375 37.054688 -163.769531 36.921875 -164.34375 C 36.796875 -164.925781 36.988281 -165.21875 37.5 -165.21875 L 40.96875 -164.0625 C 40.707031 -163.425781 39.90625 -162.367188 38.5625 -160.890625 C 37.21875 -159.421875 36.222656 -158.363281 35.578125 -157.71875 C 36.484375 -158.363281 37.539062 -159.328125 38.75 -160.609375 C 39.96875 -161.890625 40.898438 -162.847656 41.546875 -163.484375 C 42.191406 -163.234375 42.769531 -162.976562 43.28125 -162.71875 C 43.789062 -162.46875 44.175781 -162.34375 44.4375 -162.34375 L 45.015625 -162.921875 C 45.910156 -162.921875 46.898438 -162.726562 47.984375 -162.34375 C 49.078125 -161.957031 50.070312 -161.503906 50.96875 -160.984375 C 51.863281 -160.472656 52.628906 -159.894531 53.265625 -159.25 C 53.910156 -158.613281 54.234375 -158.101562 54.234375 -157.71875 Z M 11.734375 -31.734375 C 11.859375 -33.148438 11.988281 -34.5625 12.125 -35.96875 C 11.988281 -34.425781 11.859375 -33.015625 11.734375 -31.734375 Z M 11.734375 -31.734375 "/></g></g></g><g fill="#ff6100" fill-opacity="1"><g transform="translate(369.634011, 495.321972)"><g><path d="M 77.125 -50.390625 C 73.664062 -50.390625 71.070312 -50.453125 69.34375 -50.578125 C 67.613281 -50.710938 66.039062 -50.78125 64.625 -50.78125 C 60.78125 -50.78125 57.382812 -50.585938 54.4375 -50.203125 C 51.488281 -49.816406 48.988281 -49.046875 46.9375 -47.890625 C 44.882812 -46.734375 43.34375 -45.066406 42.3125 -42.890625 C 41.289062 -40.710938 40.78125 -37.828125 40.78125 -34.234375 C 40.78125 -28.972656 41.390625 -25.09375 42.609375 -22.59375 C 43.828125 -20.09375 45.554688 -18.296875 47.796875 -17.203125 C 50.035156 -16.117188 52.757812 -15.445312 55.96875 -15.1875 C 59.175781 -14.9375 62.769531 -14.363281 66.75 -13.46875 C 69.050781 -13.207031 71.351562 -13.046875 73.65625 -12.984375 C 75.96875 -12.921875 78.28125 -12.890625 80.59375 -12.890625 L 94.4375 -12.890625 C 88.03125 -13.273438 81.648438 -13.5 75.296875 -13.5625 C 68.953125 -13.625 63.25 -14.164062 58.1875 -15.1875 C 53.125 -16.21875 49.019531 -18.015625 45.875 -20.578125 C 42.726562 -23.140625 41.15625 -27.050781 41.15625 -32.3125 C 41.15625 -36.539062 41.703125 -39.773438 42.796875 -42.015625 C 43.890625 -44.265625 45.363281 -45.929688 47.21875 -47.015625 C 49.082031 -48.109375 51.296875 -48.75 53.859375 -48.9375 C 56.421875 -49.132812 59.175781 -49.234375 62.125 -49.234375 C 65.71875 -49.234375 69.375 -49.039062 73.09375 -48.65625 C 70.144531 -47.757812 67.160156 -47.085938 64.140625 -46.640625 C 61.128906 -46.191406 58.34375 -45.742188 55.78125 -45.296875 C 53.21875 -44.847656 51.003906 -44.269531 49.140625 -43.5625 C 47.285156 -42.863281 46.035156 -41.867188 45.390625 -40.578125 L 45.390625 -31.921875 L 43.859375 -31.15625 C 44.367188 -27.945312 44.847656 -25.539062 45.296875 -23.9375 C 45.742188 -22.34375 46.992188 -21.128906 49.046875 -20.296875 C 51.097656 -19.460938 54.398438 -18.785156 58.953125 -18.265625 C 63.503906 -17.753906 70.140625 -16.921875 78.859375 -15.765625 L 92.703125 -15.765625 C 95.140625 -15.765625 96.582031 -15.859375 97.03125 -16.046875 C 97.476562 -16.242188 97.769531 -16.34375 97.90625 -16.34375 L 96.171875 -26.734375 C 95.910156 -29.296875 95.585938 -31.601562 95.203125 -33.65625 C 94.828125 -35.707031 94.316406 -37.890625 93.671875 -40.203125 C 93.546875 -39.816406 93.160156 -39.625 92.515625 -39.625 C 93.160156 -37.445312 93.707031 -35.140625 94.15625 -32.703125 C 94.601562 -30.265625 94.984375 -27.953125 95.296875 -25.765625 C 95.617188 -23.585938 95.875 -21.726562 96.0625 -20.1875 C 96.257812 -18.65625 96.488281 -17.757812 96.75 -17.5 L 95.59375 -17.125 C 95.332031 -16.988281 94.945312 -16.921875 94.4375 -16.921875 L 93.28125 -16.921875 C 92.382812 -16.921875 91.359375 -17.015625 90.203125 -17.203125 C 89.054688 -17.398438 87.582031 -17.5 85.78125 -17.5 L 79.4375 -17.5 C 74.4375 -17.5 69.820312 -17.753906 65.59375 -18.265625 C 61.613281 -18.785156 58.148438 -19.429688 55.203125 -20.203125 C 58.148438 -19.554688 61.738281 -19.039062 65.96875 -18.65625 C 70.457031 -18.144531 74.625 -17.890625 78.46875 -17.890625 C 80.144531 -17.890625 81.910156 -17.921875 83.765625 -17.984375 C 85.617188 -18.046875 87.640625 -18.078125 89.828125 -18.078125 L 96.171875 -18.078125 C 95.785156 -18.460938 95.335938 -18.65625 94.828125 -18.65625 L 94.4375 -18.65625 C 93.925781 -27.5 92.769531 -35.960938 90.96875 -44.046875 C 89.175781 -52.128906 86.289062 -59.210938 82.3125 -65.296875 C 78.34375 -71.390625 73.148438 -76.265625 66.734375 -79.921875 C 60.328125 -83.578125 52.316406 -85.40625 42.703125 -85.40625 C 40.003906 -85.40625 37.304688 -85.210938 34.609375 -84.828125 C 31.921875 -84.441406 29.164062 -83.925781 26.34375 -83.28125 C 26.601562 -83.539062 26.734375 -83.796875 26.734375 -84.046875 C 26.734375 -84.691406 26.476562 -85.300781 25.96875 -85.875 C 25.457031 -86.457031 25.203125 -87.066406 25.203125 -87.703125 C 25.203125 -88.472656 26 -89.210938 27.59375 -89.921875 C 29.195312 -90.628906 32.628906 -91.300781 37.890625 -91.9375 C 37.628906 -92.195312 37.46875 -92.582031 37.40625 -93.09375 C 37.34375 -93.601562 37.3125 -93.988281 37.3125 -94.25 C 30.382812 -94.25 25 -94.40625 21.15625 -94.71875 C 17.3125 -95.039062 15.390625 -95.972656 15.390625 -97.515625 C 15.390625 -98.160156 16.191406 -99.054688 17.796875 -100.203125 C 19.398438 -101.359375 21.675781 -102.484375 24.625 -103.578125 C 27.570312 -104.671875 31.128906 -105.632812 35.296875 -106.46875 C 39.460938 -107.300781 44.109375 -107.71875 49.234375 -107.71875 C 59.109375 -107.71875 67.570312 -106.207031 74.625 -103.1875 C 81.675781 -100.175781 87.609375 -96.203125 92.421875 -91.265625 C 97.234375 -86.328125 101.144531 -80.71875 104.15625 -74.4375 C 107.164062 -68.15625 109.597656 -61.835938 111.453125 -55.484375 C 113.316406 -49.140625 114.695312 -42.984375 115.59375 -37.015625 C 116.488281 -31.054688 117.320312 -25.898438 118.09375 -21.546875 C 118.09375 -20.773438 118.125 -20.003906 118.1875 -19.234375 C 118.257812 -18.460938 118.296875 -17.566406 118.296875 -16.546875 C 118.296875 -12.828125 117.617188 -9.585938 116.265625 -6.828125 C 114.921875 -4.066406 113.0625 -1.757812 110.6875 0.09375 C 108.320312 1.957031 105.566406 3.367188 102.421875 4.328125 C 99.273438 5.285156 95.910156 5.765625 92.328125 5.765625 C 89.503906 5.765625 85.847656 5.703125 81.359375 5.578125 C 76.867188 5.453125 72.570312 5.066406 68.46875 4.421875 C 65.78125 3.785156 62.832031 3.304688 59.625 2.984375 C 56.414062 2.660156 53.144531 2.113281 49.8125 1.34375 C 46.476562 0.570312 43.238281 -0.515625 40.09375 -1.921875 C 36.957031 -3.335938 34.140625 -5.484375 31.640625 -8.359375 C 29.140625 -11.242188 27.148438 -14.992188 25.671875 -19.609375 C 24.203125 -24.234375 23.46875 -30.070312 23.46875 -37.125 C 23.46875 -43.789062 25.003906 -49.140625 28.078125 -53.171875 C 31.160156 -57.210938 34.847656 -60.351562 39.140625 -62.59375 C 43.429688 -64.84375 47.820312 -66.320312 52.3125 -67.03125 C 56.800781 -67.738281 60.457031 -68.09375 63.28125 -68.09375 C 66.875 -68.09375 69.242188 -67.832031 70.390625 -67.3125 C 71.546875 -66.800781 72.125 -66.289062 72.125 -65.78125 C 72.125 -65.394531 72.0625 -65.070312 71.9375 -64.8125 C 68.726562 -64.8125 64.625 -64.679688 59.625 -64.421875 C 54.625 -64.171875 49.78125 -63.335938 45.09375 -61.921875 C 40.414062 -60.515625 36.410156 -58.367188 33.078125 -55.484375 C 29.742188 -52.597656 28.078125 -48.53125 28.078125 -43.28125 C 29.234375 -48.019531 31.1875 -51.769531 33.9375 -54.53125 C 36.695312 -57.289062 39.875 -59.34375 43.46875 -60.6875 C 47.0625 -62.03125 50.75 -62.863281 54.53125 -63.1875 C 58.3125 -63.507812 61.738281 -63.671875 64.8125 -63.671875 L 71.359375 -63.671875 C 70.847656 -63.148438 70.59375 -62.632812 70.59375 -62.125 C 70.59375 -61.613281 70.847656 -61.164062 71.359375 -60.78125 L 78.859375 -60.78125 C 80.910156 -60.394531 82.382812 -59.71875 83.28125 -58.75 C 84.175781 -57.789062 84.625 -56.929688 84.625 -56.171875 C 84.625 -55.015625 84.046875 -53.984375 82.890625 -53.078125 C 81.742188 -52.179688 79.820312 -51.285156 77.125 -50.390625 Z M 44.8125 -3.84375 C 48.40625 -2.4375 52.09375 -1.347656 55.875 -0.578125 C 59.65625 0.191406 63.40625 0.707031 67.125 0.96875 C 70.84375 1.34375 74.304688 1.53125 77.515625 1.53125 C 74.953125 1.28125 72.390625 0.832031 69.828125 0.1875 C 67.128906 -0.445312 64.753906 -1.019531 62.703125 -1.53125 C 60.523438 -2.050781 58.378906 -2.40625 56.265625 -2.59375 C 54.148438 -2.789062 51.96875 -3.082031 49.71875 -3.46875 C 47.476562 -3.851562 45.203125 -4.460938 42.890625 -5.296875 C 40.585938 -6.128906 38.28125 -7.378906 35.96875 -9.046875 C 38.40625 -6.859375 41.351562 -5.125 44.8125 -3.84375 Z M 46.734375 -24.046875 C 46.609375 -24.171875 46.992188 -23.785156 47.890625 -22.890625 C 48.660156 -22.117188 49.6875 -21.539062 50.96875 -21.15625 C 50.332031 -21.414062 49.367188 -21.738281 48.078125 -22.125 C 46.671875 -22.632812 45.96875 -23.398438 45.96875 -24.421875 Z M 51.546875 -21.15625 C 51.421875 -21.15625 51.226562 -21.15625 50.96875 -21.15625 C 51.09375 -21.15625 51.285156 -21.15625 51.546875 -21.15625 Z M 51.546875 -21.15625 "/></g></g></g><g fill="#ff6100" fill-opacity="1"><g transform="translate(500.40061, 495.321972)"><g><path d="M 93.671875 -9.234375 C 93.671875 -13.460938 93.378906 -17.753906 92.796875 -22.109375 C 92.222656 -26.472656 91.9375 -30.707031 91.9375 -34.8125 L 91.9375 -40 C 91.300781 -45.007812 90.53125 -50.878906 89.625 -57.609375 C 88.726562 -64.335938 87.570312 -70.710938 86.15625 -76.734375 C 84.75 -82.765625 83.019531 -87.894531 80.96875 -92.125 C 78.925781 -96.363281 76.363281 -98.484375 73.28125 -98.484375 C 68.789062 -98.484375 64.171875 -96.398438 59.421875 -92.234375 C 54.679688 -88.066406 50.710938 -82.003906 47.515625 -74.046875 C 45.972656 -69.554688 44.910156 -64.8125 44.328125 -59.8125 C 43.753906 -54.8125 43.273438 -49.554688 42.890625 -44.046875 C 42.503906 -38.535156 42.148438 -32.859375 41.828125 -27.015625 C 41.515625 -21.179688 40.90625 -15.125 40 -8.84375 C 39.75 -8.207031 39.523438 -7.4375 39.328125 -6.53125 C 39.140625 -5.632812 38.984375 -4.867188 38.859375 -4.234375 L 15.1875 -4.234375 L 15.1875 -19.8125 C 15.0625 -21.09375 14.9375 -22.628906 14.8125 -24.421875 C 14.6875 -26.222656 14.523438 -28.050781 14.328125 -29.90625 C 14.140625 -31.769531 13.976562 -33.597656 13.84375 -35.390625 C 13.71875 -37.179688 13.59375 -38.71875 13.46875 -40 C 13.46875 -50.394531 13.050781 -60.785156 12.21875 -71.171875 C 11.382812 -81.554688 10.835938 -92.132812 10.578125 -102.90625 L 15 -103.859375 C 15.382812 -103.859375 15.800781 -103.503906 16.25 -102.796875 C 16.695312 -102.097656 17.082031 -100.785156 17.40625 -98.859375 C 17.726562 -96.941406 18.046875 -94.21875 18.359375 -90.6875 C 18.679688 -87.164062 18.972656 -82.582031 19.234375 -76.9375 C 19.359375 -76.9375 19.550781 -77 19.8125 -77.125 C 20.320312 -77.382812 20.707031 -77.515625 20.96875 -77.515625 C 20.96875 -78.410156 20.929688 -79.304688 20.859375 -80.203125 C 20.796875 -81.097656 20.765625 -82 20.765625 -82.90625 C 20.765625 -93.925781 21.503906 -102.414062 22.984375 -108.375 C 24.460938 -114.34375 25.710938 -117.328125 26.734375 -117.328125 C 27.503906 -117.328125 28.273438 -115.660156 29.046875 -112.328125 C 29.816406 -108.992188 30.648438 -103.738281 31.546875 -96.5625 C 33.722656 -100.019531 36.222656 -103.347656 39.046875 -106.546875 C 41.867188 -109.753906 45.039062 -112.546875 48.5625 -114.921875 C 52.09375 -117.296875 55.910156 -119.1875 60.015625 -120.59375 C 64.117188 -122.007812 68.601562 -122.71875 73.46875 -122.71875 C 77.707031 -122.71875 81.425781 -121.816406 84.625 -120.015625 C 87.832031 -118.222656 90.6875 -115.882812 93.1875 -113 C 95.6875 -110.113281 97.800781 -106.84375 99.53125 -103.1875 C 101.269531 -99.53125 102.78125 -95.875 104.0625 -92.21875 C 105.34375 -88.570312 106.398438 -85.046875 107.234375 -81.640625 C 108.066406 -78.242188 108.800781 -75.394531 109.4375 -73.09375 C 109.4375 -72.832031 109.5 -72.539062 109.625 -72.21875 C 109.757812 -71.90625 109.890625 -71.617188 110.015625 -71.359375 C 111.554688 -75.460938 113.476562 -80.175781 115.78125 -85.5 C 118.09375 -90.820312 120.976562 -95.851562 124.4375 -100.59375 C 127.90625 -105.34375 131.976562 -109.347656 136.65625 -112.609375 C 141.34375 -115.878906 146.757812 -117.515625 152.90625 -117.515625 C 158.9375 -117.515625 164.066406 -115.910156 168.296875 -112.703125 C 172.523438 -109.503906 176.082031 -105.40625 178.96875 -100.40625 C 181.851562 -95.40625 184.160156 -89.859375 185.890625 -83.765625 C 187.628906 -77.671875 188.945312 -71.707031 189.84375 -65.875 C 190.738281 -60.039062 191.3125 -54.6875 191.5625 -49.8125 C 191.820312 -44.945312 191.953125 -41.226562 191.953125 -38.65625 C 191.953125 -34.550781 191.789062 -31.535156 191.46875 -29.609375 C 191.15625 -27.691406 190.289062 -26.734375 188.875 -26.734375 C 188.625 -31.859375 188.398438 -37.050781 188.203125 -42.3125 C 188.015625 -47.570312 187.628906 -52.863281 187.046875 -58.1875 C 186.472656 -63.507812 185.675781 -68.734375 184.65625 -73.859375 C 183.625 -78.859375 182.273438 -83.796875 180.609375 -88.671875 C 183.816406 -78.535156 185.675781 -68.40625 186.1875 -58.28125 C 186.832031 -48.019531 187.347656 -37.890625 187.734375 -27.890625 C 186.828125 -28.785156 186.117188 -29.234375 185.609375 -29.234375 C 185.222656 -29.234375 184.96875 -28.976562 184.84375 -28.46875 L 184.84375 -22.703125 C 184.84375 -21.035156 184.875 -19.300781 184.9375 -17.5 C 185 -15.707031 185.160156 -14.171875 185.421875 -12.890625 C 185.160156 -7.628906 184.929688 -3.875 184.734375 -1.625 C 184.546875 0.613281 184.066406 2.050781 183.296875 2.6875 C 182.273438 2.6875 181.378906 2.109375 180.609375 0.953125 C 179.835938 -0.191406 179.097656 -1.660156 178.390625 -3.453125 C 177.691406 -5.253906 177.019531 -7.242188 176.375 -9.421875 C 175.738281 -11.597656 175.097656 -13.710938 174.453125 -15.765625 L 174.453125 -20.96875 C 174.453125 -26.601562 174.421875 -32.5 174.359375 -38.65625 C 174.296875 -44.8125 174.039062 -50.804688 173.59375 -56.640625 C 173.144531 -62.472656 172.4375 -68.019531 171.46875 -73.28125 C 170.507812 -78.539062 169.226562 -83.1875 167.625 -87.21875 C 166.019531 -91.257812 163.96875 -94.4375 161.46875 -96.75 C 158.96875 -99.0625 155.925781 -100.21875 152.34375 -100.21875 C 149.382812 -100.21875 146.6875 -99.445312 144.25 -97.90625 C 142.84375 -97.007812 141.4375 -95.851562 140.03125 -94.4375 C 141.4375 -95.71875 142.910156 -96.804688 144.453125 -97.703125 C 146.890625 -99.242188 149.519531 -100.015625 152.34375 -100.015625 L 153.109375 -100.015625 C 156.316406 -100.015625 159.039062 -98.765625 161.28125 -96.265625 C 163.519531 -93.765625 165.375 -90.460938 166.84375 -86.359375 C 168.320312 -82.253906 169.445312 -77.570312 170.21875 -72.3125 C 170.988281 -67.0625 171.597656 -61.613281 172.046875 -55.96875 C 172.492188 -50.332031 172.78125 -44.722656 172.90625 -39.140625 C 173.039062 -33.566406 173.171875 -28.46875 173.296875 -23.84375 C 172.523438 -27.4375 171.851562 -31.703125 171.28125 -36.640625 C 170.707031 -41.578125 170.128906 -46.738281 169.546875 -52.125 C 168.972656 -57.507812 168.269531 -62.828125 167.4375 -68.078125 C 166.601562 -73.335938 165.546875 -78.050781 164.265625 -82.21875 C 162.984375 -86.394531 161.378906 -89.765625 159.453125 -92.328125 C 157.523438 -94.890625 155.15625 -96.171875 152.34375 -96.171875 C 151.1875 -96.171875 150.15625 -96.070312 149.25 -95.875 C 148.351562 -95.6875 147.203125 -95.015625 145.796875 -93.859375 L 143.875 -94.828125 C 139.507812 -90.984375 135.851562 -85.851562 132.90625 -79.4375 C 129.957031 -73.03125 127.457031 -66.140625 125.40625 -58.765625 C 123.351562 -51.390625 121.617188 -43.851562 120.203125 -36.15625 C 118.796875 -28.46875 117.453125 -21.351562 116.171875 -14.8125 L 116.171875 -7.5 C 118.222656 -17.632812 120.113281 -27.601562 121.84375 -37.40625 C 123.582031 -47.21875 126.117188 -56.738281 129.453125 -65.96875 C 126.878906 -58.019531 124.890625 -49.8125 123.484375 -41.34375 C 122.078125 -32.882812 120.472656 -24.234375 118.671875 -15.390625 C 118.671875 -14.492188 118.476562 -13.273438 118.09375 -11.734375 C 117.707031 -10.191406 117.066406 -7.882812 116.171875 -4.8125 L 95.015625 -6.921875 Z M 95.78125 -18.84375 C 95.394531 -22.3125 95.039062 -26.738281 94.71875 -32.125 C 94.40625 -37.507812 93.988281 -43.210938 93.46875 -49.234375 C 92.957031 -55.265625 92.253906 -61.359375 91.359375 -67.515625 C 90.460938 -73.671875 89.210938 -79.21875 87.609375 -84.15625 C 86.003906 -89.09375 84.015625 -93.097656 81.640625 -96.171875 C 79.273438 -99.242188 76.296875 -100.78125 72.703125 -100.78125 C 71.546875 -100.78125 70.328125 -100.523438 69.046875 -100.015625 C 67.765625 -99.503906 66.546875 -98.925781 65.390625 -98.28125 C 65.773438 -98.414062 66.097656 -98.484375 66.359375 -98.484375 L 66.546875 -98.484375 C 66.546875 -98.347656 66.351562 -98.085938 65.96875 -97.703125 C 69.4375 -98.859375 72.128906 -99.4375 74.046875 -99.4375 C 76.484375 -98.539062 78.664062 -96.550781 80.59375 -93.46875 C 82.519531 -90.394531 84.15625 -86.707031 85.5 -82.40625 C 86.84375 -78.113281 87.992188 -73.46875 88.953125 -68.46875 C 89.921875 -63.46875 90.660156 -58.691406 91.171875 -54.140625 C 91.679688 -49.585938 92.0625 -45.515625 92.3125 -41.921875 C 92.570312 -38.335938 92.703125 -35.773438 92.703125 -34.234375 C 93.085938 -30.390625 93.441406 -26.609375 93.765625 -22.890625 C 94.085938 -19.171875 94.25 -15.453125 94.25 -11.734375 Z M 111.9375 -70.59375 C 111.9375 -70.457031 112.066406 -69.878906 112.328125 -68.859375 C 112.585938 -67.960938 112.78125 -67.382812 112.90625 -67.125 C 113.289062 -68.40625 114.125 -70.488281 115.40625 -73.375 C 116.6875 -76.257812 118.097656 -79.335938 119.640625 -82.609375 C 121.179688 -85.878906 122.65625 -88.925781 124.0625 -91.75 C 124.570312 -92.90625 125.019531 -93.929688 125.40625 -94.828125 C 125.019531 -94.054688 124.507812 -93.222656 123.875 -92.328125 C 122.457031 -89.765625 120.914062 -87.101562 119.25 -84.34375 C 117.582031 -81.582031 116.039062 -78.921875 114.625 -76.359375 C 113.21875 -73.796875 112.320312 -71.875 111.9375 -70.59375 Z M 127.140625 -72.890625 C 124.578125 -66.359375 122.332031 -59.46875 120.40625 -52.21875 C 118.476562 -44.976562 116.75 -37.507812 115.21875 -29.8125 L 115.59375 -26.734375 C 117.257812 -35.960938 119.1875 -45.257812 121.375 -54.625 C 123.425781 -62.832031 126.050781 -70.59375 129.25 -77.90625 C 129.125 -77.519531 129 -77.195312 128.875 -76.9375 C 128.226562 -75.65625 127.648438 -74.304688 127.140625 -72.890625 Z M 95.78125 -46.734375 C 96.039062 -44.679688 96.203125 -42.691406 96.265625 -40.765625 C 96.328125 -38.847656 96.425781 -37.054688 96.5625 -35.390625 L 97.140625 -26.15625 L 97.328125 -27.125 C 97.203125 -28.914062 97.140625 -30.644531 97.140625 -32.3125 L 97.140625 -37.125 Z M 158.875 -112.71875 C 156.5625 -113.351562 154.382812 -113.671875 152.34375 -113.671875 L 150.21875 -113.671875 C 149.320312 -113.671875 148.875 -113.609375 148.875 -113.484375 L 149.0625 -113.484375 C 151.113281 -112.972656 153.039062 -112.71875 154.84375 -112.71875 Z M 130.40625 -68.671875 C 131.050781 -70.460938 131.628906 -72.191406 132.140625 -73.859375 C 132.785156 -75.523438 133.296875 -76.679688 133.671875 -77.328125 C 133.671875 -77.066406 133.546875 -76.550781 133.296875 -75.78125 C 133.035156 -74.882812 132.519531 -73.539062 131.75 -71.75 Z M 172.140625 -104.640625 C 171.503906 -105.398438 170.671875 -106.164062 169.640625 -106.9375 C 168.878906 -107.457031 168.175781 -107.910156 167.53125 -108.296875 C 169.070312 -107.265625 170.609375 -106.046875 172.140625 -104.640625 Z M 126.375 -96.5625 C 126.113281 -96.300781 125.921875 -95.914062 125.796875 -95.40625 C 126.046875 -95.789062 126.238281 -96.175781 126.375 -96.5625 Z M 126.375 -96.5625 "/></g></g></g><g fill="#ff6100" fill-opacity="1"><g transform="translate(701.935017, 495.321972)"><g><path d="M 79.625 3.46875 C 74.757812 5.132812 71.039062 6.0625 68.46875 6.25 C 65.90625 6.445312 63.664062 6.609375 61.75 6.734375 C 54.5625 6.734375 48.082031 5.382812 42.3125 2.6875 C 36.539062 0 31.601562 -3.648438 27.5 -8.265625 C 23.394531 -12.878906 20.222656 -18.296875 17.984375 -24.515625 C 15.742188 -30.742188 14.625 -37.382812 14.625 -44.4375 C 14.625 -48.539062 15.003906 -52.800781 15.765625 -57.21875 C 16.535156 -61.644531 17.691406 -66.003906 19.234375 -70.296875 C 20.773438 -74.597656 22.765625 -78.609375 25.203125 -82.328125 C 27.503906 -86.046875 30.257812 -89.378906 33.46875 -92.328125 C 30.132812 -89.628906 27.3125 -86.421875 25 -82.703125 C 22.5625 -78.984375 20.507812 -74.976562 18.84375 -70.6875 C 17.175781 -66.394531 15.957031 -61.972656 15.1875 -57.421875 C 14.425781 -52.867188 14.046875 -48.472656 14.046875 -44.234375 C 14.046875 -38.847656 14.910156 -33.109375 16.640625 -27.015625 C 18.367188 -20.929688 21.15625 -15.289062 25 -10.09375 C 28.851562 -4.90625 33.820312 -0.582031 39.90625 2.875 C 46 6.34375 53.40625 8.078125 62.125 8.078125 C 66.226562 8.078125 70.523438 7.5 75.015625 6.34375 C 70.140625 9.550781 64.691406 11.15625 58.671875 11.15625 C 53.796875 11.15625 49.207031 10.414062 44.90625 8.9375 C 40.613281 7.46875 36.640625 5.414062 32.984375 2.78125 C 29.328125 0.15625 26.023438 -2.945312 23.078125 -6.53125 C 20.128906 -10.125 17.628906 -13.972656 15.578125 -18.078125 L 17.3125 -19.625 C 15.132812 -23.976562 13.5625 -28.332031 12.59375 -32.6875 C 11.632812 -37.050781 11.15625 -41.476562 11.15625 -45.96875 C 11.15625 -52.507812 12.082031 -58.789062 13.9375 -64.8125 C 15.800781 -70.84375 18.269531 -76.550781 21.34375 -81.9375 L 25.96875 -88.28125 C 26.738281 -89.695312 27.859375 -91.109375 29.328125 -92.515625 C 30.804688 -93.929688 32.441406 -95.3125 34.234375 -96.65625 C 36.035156 -98 37.925781 -99.210938 39.90625 -100.296875 C 41.894531 -101.390625 43.785156 -102.382812 45.578125 -103.28125 C 50.203125 -105.59375 54.820312 -107.675781 59.4375 -109.53125 C 64.050781 -111.394531 69.4375 -112.773438 75.59375 -113.671875 L 74.828125 -114.25 C 63.023438 -113.09375 53.019531 -110.238281 44.8125 -105.6875 C 36.601562 -101.132812 29.9375 -95.585938 24.8125 -89.046875 C 19.6875 -82.515625 15.96875 -75.367188 13.65625 -67.609375 C 11.34375 -59.847656 10.1875 -52.25 10.1875 -44.8125 C 10.1875 -40.84375 10.539062 -36.835938 11.25 -32.796875 C 11.957031 -28.753906 13.015625 -24.742188 14.421875 -20.765625 C 11.210938 -28.460938 9.609375 -36.609375 9.609375 -45.203125 C 9.609375 -53.660156 11.019531 -62.054688 13.84375 -70.390625 C 16.664062 -78.734375 21.09375 -86.429688 27.125 -93.484375 C 34.8125 -100.535156 43.207031 -105.953125 52.3125 -109.734375 C 61.414062 -113.515625 70.203125 -115.40625 78.671875 -115.40625 C 81.359375 -115.40625 84.113281 -114.957031 86.9375 -114.0625 C 89.757812 -113.164062 92.320312 -111.785156 94.625 -109.921875 C 96.9375 -108.066406 98.828125 -105.660156 100.296875 -102.703125 C 101.773438 -99.753906 102.515625 -96.164062 102.515625 -91.9375 C 102.515625 -88.476562 101.679688 -84.25 100.015625 -79.25 C 98.347656 -74.25 95.878906 -69.40625 92.609375 -64.71875 C 89.335938 -60.039062 85.265625 -56.066406 80.390625 -52.796875 C 75.523438 -49.523438 69.882812 -47.890625 63.46875 -47.890625 L 57.125 -47.890625 C 52.382812 -48.921875 48.054688 -50.109375 44.140625 -51.453125 C 40.234375 -52.796875 36.546875 -53.851562 33.078125 -54.625 C 32.566406 -52.570312 32.28125 -50.613281 32.21875 -48.75 C 32.15625 -46.894531 32.125 -45.070312 32.125 -43.28125 C 32.125 -39.5625 32.539062 -35.9375 33.375 -32.40625 C 34.207031 -28.882812 35.519531 -25.644531 37.3125 -22.6875 C 39.101562 -19.738281 41.378906 -17.269531 44.140625 -15.28125 C 46.898438 -13.300781 50.265625 -12.054688 54.234375 -11.546875 C 56.671875 -11.023438 58.785156 -10.734375 60.578125 -10.671875 C 62.378906 -10.609375 63.890625 -10.546875 65.109375 -10.484375 C 66.328125 -10.421875 67.222656 -10.226562 67.796875 -9.90625 C 68.378906 -9.582031 68.671875 -8.972656 68.671875 -8.078125 C 67.390625 -7.691406 66.070312 -7.429688 64.71875 -7.296875 C 63.375 -7.171875 62 -7.109375 60.59375 -7.109375 C 56.101562 -7.109375 52.0625 -7.847656 48.46875 -9.328125 C 44.875 -10.804688 41.796875 -12.503906 39.234375 -14.421875 C 42.179688 -11.472656 45.707031 -9.390625 49.8125 -8.171875 C 53.914062 -6.953125 57.957031 -6.34375 61.9375 -6.34375 C 64.113281 -6.34375 66.359375 -6.535156 68.671875 -6.921875 C 68.410156 -6.148438 68.28125 -5.703125 68.28125 -5.578125 C 68.28125 -4.804688 68.601562 -4.296875 69.25 -4.046875 C 69.757812 -4.171875 70.65625 -4.519531 71.9375 -5.09375 C 73.21875 -5.675781 74.53125 -6.253906 75.875 -6.828125 C 77.226562 -7.398438 78.546875 -7.910156 79.828125 -8.359375 C 81.109375 -8.816406 82.003906 -9.046875 82.515625 -9.046875 C 83.160156 -9.046875 83.738281 -8.945312 84.25 -8.75 C 84.757812 -8.5625 85.015625 -7.828125 85.015625 -6.546875 C 85.015625 -5.253906 84.566406 -3.710938 83.671875 -1.921875 C 82.773438 -0.128906 81.425781 1.664062 79.625 3.46875 Z M 53.09375 -72.703125 L 57.3125 -71.9375 C 58.726562 -71.675781 60.015625 -71.546875 61.171875 -71.546875 C 62.453125 -71.546875 63.957031 -71.960938 65.6875 -72.796875 C 67.414062 -73.628906 69.144531 -74.816406 70.875 -76.359375 C 72.601562 -77.898438 74.140625 -79.820312 75.484375 -82.125 C 76.835938 -84.4375 77.832031 -87.066406 78.46875 -90.015625 L 78.859375 -91.171875 C 77.066406 -91.171875 74.375 -90.722656 70.78125 -89.828125 C 67.1875 -88.929688 63.46875 -87.742188 59.625 -86.265625 C 55.78125 -84.785156 52.191406 -83.050781 48.859375 -81.0625 C 45.523438 -79.082031 43.21875 -76.9375 41.9375 -74.625 C 43.851562 -74.238281 45.738281 -73.882812 47.59375 -73.5625 C 49.457031 -73.25 51.289062 -72.960938 53.09375 -72.703125 Z M 44.234375 -58.46875 C 44.492188 -58.726562 44.65625 -59.113281 44.71875 -59.625 C 44.78125 -60.132812 44.8125 -60.519531 44.8125 -60.78125 L 35.78125 -64.046875 L 34.8125 -61.359375 Z M 38.859375 -14.8125 C 37.953125 -15.832031 37.050781 -16.859375 36.15625 -17.890625 C 35.382812 -18.785156 34.742188 -19.679688 34.234375 -20.578125 C 35.390625 -18.398438 36.929688 -16.476562 38.859375 -14.8125 Z M 38.859375 -14.8125 "/></g></g></g><g fill="#ff6100" fill-opacity="1"><g transform="translate(812.125126, 495.321972)"><g><path d="M 25.578125 -30.96875 C 27.628906 -30.320312 30.097656 -29.164062 32.984375 -27.5 C 35.867188 -25.832031 39.101562 -24.101562 42.6875 -22.3125 C 46.28125 -20.519531 50.222656 -18.914062 54.515625 -17.5 C 58.816406 -16.09375 63.40625 -15.390625 68.28125 -15.390625 L 70.390625 -15.390625 C 71.160156 -15.390625 72.0625 -15.515625 73.09375 -15.765625 L 75.203125 -14.234375 C 80.203125 -15.773438 84.304688 -18.691406 87.515625 -22.984375 C 90.722656 -27.273438 92.328125 -33.078125 92.328125 -40.390625 C 92.328125 -45.648438 91.078125 -49.269531 88.578125 -51.25 C 86.078125 -53.238281 81.492188 -54.234375 74.828125 -54.234375 C 70.722656 -54.234375 66.457031 -53.945312 62.03125 -53.375 C 57.601562 -52.800781 52.953125 -52.515625 48.078125 -52.515625 C 45.898438 -52.515625 43.65625 -52.609375 41.34375 -52.796875 C 39.039062 -52.992188 36.671875 -53.410156 34.234375 -54.046875 L 34.234375 -52.890625 C 39.367188 -51.609375 44.4375 -50.96875 49.4375 -50.96875 C 54.300781 -50.96875 58.945312 -51.253906 63.375 -51.828125 C 67.800781 -52.410156 72.066406 -52.703125 76.171875 -52.703125 C 79.628906 -52.703125 82.351562 -52.347656 84.34375 -51.640625 C 86.332031 -50.941406 87.835938 -50.015625 88.859375 -48.859375 C 89.890625 -47.703125 90.5625 -46.320312 90.875 -44.71875 C 91.195312 -43.113281 91.359375 -41.351562 91.359375 -39.4375 C 91.359375 -33.40625 89.753906 -28.273438 86.546875 -24.046875 C 83.472656 -20.066406 79.820312 -17.566406 75.59375 -16.546875 C 80.332031 -18.210938 84.050781 -21.097656 86.75 -25.203125 C 89.570312 -29.554688 90.984375 -34.425781 90.984375 -39.8125 C 90.984375 -43.65625 89.988281 -46.601562 88 -48.65625 C 86.007812 -50.707031 82.578125 -51.734375 77.703125 -51.734375 C 73.734375 -51.734375 69.242188 -51.476562 64.234375 -50.96875 C 59.234375 -50.457031 53.914062 -50.203125 48.28125 -50.203125 C 44.8125 -50.203125 40.800781 -50.648438 36.25 -51.546875 C 31.695312 -52.441406 27.367188 -54.109375 23.265625 -56.546875 C 19.171875 -58.984375 15.710938 -62.347656 12.890625 -66.640625 C 10.066406 -70.941406 8.65625 -76.554688 8.65625 -83.484375 C 8.65625 -88.992188 9.773438 -94.085938 12.015625 -98.765625 C 14.265625 -103.441406 17.25 -107.546875 20.96875 -111.078125 C 24.6875 -114.609375 28.945312 -117.394531 33.75 -119.4375 C 38.5625 -121.488281 43.53125 -122.582031 48.65625 -122.71875 C 53.53125 -122.71875 58.179688 -122.039062 62.609375 -120.6875 C 67.035156 -119.34375 71.234375 -117.613281 75.203125 -115.5 C 79.179688 -113.382812 82.960938 -111.046875 86.546875 -108.484375 C 90.140625 -105.921875 93.476562 -103.351562 96.5625 -100.78125 L 92.703125 -96.9375 C 91.804688 -96.9375 90.460938 -97.484375 88.671875 -98.578125 C 86.878906 -99.671875 84.125 -101.5625 80.40625 -104.25 L 79.25 -102.515625 C 83.863281 -98.796875 87.226562 -95.332031 89.34375 -92.125 C 91.457031 -88.925781 92.515625 -86.425781 92.515625 -84.625 C 92.253906 -83.601562 91.613281 -83.09375 90.59375 -83.09375 C 89.570312 -83.09375 87.519531 -83.925781 84.4375 -85.59375 C 81.363281 -87.257812 77.867188 -89.117188 73.953125 -91.171875 C 70.046875 -93.222656 65.910156 -95.082031 61.546875 -96.75 C 57.191406 -98.414062 53.21875 -99.25 49.625 -99.25 C 47.570312 -99.25 45.519531 -98.863281 43.46875 -98.09375 C 41.414062 -97.320312 39.554688 -96.265625 37.890625 -94.921875 C 36.222656 -93.578125 34.84375 -91.941406 33.75 -90.015625 C 32.664062 -88.085938 32.125 -85.972656 32.125 -83.671875 C 32.125 -79.953125 33.851562 -77.453125 37.3125 -76.171875 C 40.78125 -74.890625 45.332031 -74.25 50.96875 -74.25 C 52.125 -74.25 53.375 -74.28125 54.71875 -74.34375 C 56.0625 -74.40625 57.3125 -74.566406 58.46875 -74.828125 C 61.414062 -74.828125 63.367188 -74.921875 64.328125 -75.109375 C 65.296875 -75.304688 66.226562 -75.40625 67.125 -75.40625 C 72.644531 -75.40625 78.160156 -75.019531 83.671875 -74.25 C 89.179688 -73.476562 94.113281 -71.804688 98.46875 -69.234375 C 102.832031 -66.671875 106.359375 -63.015625 109.046875 -58.265625 C 111.742188 -53.523438 113.09375 -47.179688 113.09375 -39.234375 C 113.09375 -33.722656 112.160156 -28.242188 110.296875 -22.796875 C 108.441406 -17.347656 105.65625 -12.472656 101.9375 -8.171875 C 98.21875 -3.878906 93.601562 -0.421875 88.09375 2.203125 C 82.582031 4.835938 76.109375 6.15625 68.671875 6.15625 C 64.179688 6.15625 58.890625 5.289062 52.796875 3.5625 C 46.703125 1.832031 40.929688 -0.21875 35.484375 -2.59375 C 30.035156 -4.96875 25.421875 -7.4375 21.640625 -10 C 17.859375 -12.5625 15.96875 -14.742188 15.96875 -16.546875 C 15.96875 -17.054688 16.285156 -17.441406 16.921875 -17.703125 C 24.742188 -11.929688 32.695312 -7.1875 40.78125 -3.46875 C 48.726562 0 56.867188 1.925781 65.203125 2.3125 C 61.097656 2.050781 56.992188 1.34375 52.890625 0.1875 C 48.660156 -1.09375 44.460938 -2.660156 40.296875 -4.515625 C 36.128906 -6.378906 32.15625 -8.492188 28.375 -10.859375 C 24.59375 -13.234375 20.96875 -15.640625 17.5 -18.078125 L 20.390625 -20.578125 C 20.003906 -20.703125 19.296875 -21.148438 18.265625 -21.921875 C 17.242188 -22.691406 16.25 -23.65625 15.28125 -24.8125 C 14.320312 -25.96875 13.457031 -27.1875 12.6875 -28.46875 C 11.925781 -29.75 11.546875 -30.96875 11.546875 -32.125 C 11.546875 -33.40625 11.800781 -34.238281 12.3125 -34.625 C 12.820312 -35.007812 13.398438 -35.203125 14.046875 -35.203125 C 14.679688 -35.203125 16.023438 -34.75 18.078125 -33.84375 C 20.128906 -32.945312 22.628906 -31.988281 25.578125 -30.96875 Z M 68.09375 -11.34375 C 63.601562 -11.34375 58.632812 -12.269531 53.1875 -14.125 C 47.738281 -15.988281 42.578125 -18.394531 37.703125 -21.34375 C 41.671875 -18.65625 46.09375 -16.253906 50.96875 -14.140625 C 55.84375 -12.023438 61.484375 -10.96875 67.890625 -10.96875 C 76.484375 -10.96875 83.3125 -13.59375 88.375 -18.84375 C 93.445312 -24.101562 95.984375 -31.15625 95.984375 -40 L 95.984375 -41.9375 C 95.335938 -46.03125 93.957031 -49.390625 91.84375 -52.015625 C 89.726562 -54.648438 86.488281 -56.097656 82.125 -56.359375 C 84.820312 -55.847656 87.035156 -55.015625 88.765625 -53.859375 C 90.492188 -52.703125 91.835938 -51.320312 92.796875 -49.71875 C 93.765625 -48.113281 94.441406 -46.347656 94.828125 -44.421875 C 95.210938 -42.503906 95.40625 -40.519531 95.40625 -38.46875 C 94.894531 -30.007812 92.203125 -23.375 87.328125 -18.5625 C 82.453125 -13.75 76.039062 -11.34375 68.09375 -11.34375 Z M 92.515625 -3.84375 C 95.722656 -5.894531 98.285156 -8.394531 100.203125 -11.34375 C 102.128906 -14.289062 103.800781 -17.367188 105.21875 -20.578125 C 102.519531 -15.191406 98.828125 -10.445312 94.140625 -6.34375 C 89.460938 -2.238281 83.921875 0.320312 77.515625 1.34375 C 79.953125 0.957031 82.484375 0.414062 85.109375 -0.28125 C 87.742188 -0.988281 90.210938 -2.175781 92.515625 -3.84375 Z M 110.796875 -40 C 110.796875 -41.414062 110.535156 -42.765625 110.015625 -44.046875 C 109.628906 -45.066406 109.3125 -46.15625 109.0625 -47.3125 L 109.25 -44.8125 C 109.375 -43.789062 109.4375 -42.378906 109.4375 -40.578125 C 109.4375 -37.117188 109.050781 -33.785156 108.28125 -30.578125 C 107.519531 -27.378906 106.5625 -24.238281 105.40625 -21.15625 C 106.5625 -23.976562 107.679688 -26.957031 108.765625 -30.09375 C 109.859375 -33.238281 110.535156 -36.539062 110.796875 -40 Z M 109.0625 -47.890625 C 109.0625 -47.765625 109.0625 -47.570312 109.0625 -47.3125 C 109.0625 -47.570312 109.0625 -47.765625 109.0625 -47.890625 Z M 75.40625 -16.34375 C 75.269531 -16.34375 75.140625 -16.34375 75.015625 -16.34375 C 75.140625 -16.34375 75.269531 -16.34375 75.40625 -16.34375 Z M 75.40625 -16.34375 "/></g></g></g></svg>