<svg xmlns="http://www.w3.org/2000/svg" xmlns:xlink="http://www.w3.org/1999/xlink" width="1366" zoomAndPan="magnify" viewBox="0 0 1024.5 576" height="768" preserveAspectRatio="xMidYMid meet" version="1.0"><defs><g/></defs><g fill="#000000" fill-opacity="1"><g transform="translate(357.316819, 297.641951)"><g><path d="M 196.140625 -38.71875 C 195.660156 -32.632812 193.285156 -27.335938 189.015625 -22.828125 C 184.753906 -18.328125 179.519531 -14.550781 173.3125 -11.5 C 167.101562 -8.457031 160.53125 -6.207031 153.59375 -4.75 C 146.65625 -3.289062 140.382812 -2.5625 134.78125 -2.5625 C 118.21875 -2.5625 103.363281 -6.515625 90.21875 -14.421875 C 77.070312 -22.335938 65.867188 -32.566406 56.609375 -45.109375 C 47.359375 -57.648438 40.054688 -71.59375 34.703125 -86.9375 C 29.585938 -101.789062 26.664062 -116.398438 25.9375 -130.765625 C 26.425781 -115.910156 29.222656 -100.9375 34.328125 -85.84375 C 39.691406 -70.25 47 -56.117188 56.25 -43.453125 C 65.5 -30.796875 76.820312 -20.507812 90.21875 -12.59375 C 103.613281 -4.6875 118.710938 -0.734375 135.515625 -0.734375 C 144.765625 -0.734375 153.769531 -2.191406 162.53125 -5.109375 C 171.300781 -8.035156 179.460938 -12.054688 187.015625 -17.171875 C 181.410156 -8.648438 173.984375 -2.5625 164.734375 1.09375 C 155.484375 4.75 145.988281 6.578125 136.25 6.578125 C 125.289062 6.578125 115.179688 5.050781 105.921875 2 C 96.671875 -1.039062 87.660156 -5.847656 78.890625 -12.421875 L 77.4375 -18.265625 C 67.445312 -24.347656 58.859375 -31.894531 51.671875 -40.90625 C 44.492188 -49.914062 38.648438 -59.65625 34.140625 -70.125 C 29.640625 -80.601562 26.351562 -91.5625 24.28125 -103 C 22.21875 -114.445312 21.1875 -125.894531 21.1875 -137.34375 C 21.1875 -149.519531 22.34375 -161.632812 24.65625 -173.6875 C 26.96875 -185.738281 30.191406 -197.609375 34.328125 -209.296875 C 33.359375 -209.296875 32.875 -209.660156 32.875 -210.390625 C 27.757812 -199.191406 23.984375 -187.625 21.546875 -175.6875 C 19.109375 -163.757812 17.890625 -151.585938 17.890625 -139.171875 C 17.890625 -115.546875 22.515625 -92.835938 31.765625 -71.046875 C 41.023438 -49.253906 54.785156 -30.804688 73.046875 -15.703125 C 63.554688 -23.015625 55.21875 -31.414062 48.03125 -40.90625 C 40.84375 -50.40625 34.9375 -60.570312 30.3125 -71.40625 C 25.6875 -82.238281 22.21875 -93.5 19.90625 -105.1875 C 17.59375 -116.882812 16.4375 -128.695312 16.4375 -140.625 C 16.4375 -156.695312 18.6875 -173.070312 23.1875 -189.75 C 27.695312 -206.4375 34.515625 -221.597656 43.640625 -235.234375 C 52.773438 -248.867188 64.160156 -260.007812 77.796875 -268.65625 C 91.429688 -277.300781 107.382812 -281.625 125.65625 -281.625 C 133.9375 -281.625 141.789062 -280.28125 149.21875 -277.59375 C 156.644531 -274.914062 163.644531 -271.382812 170.21875 -267 C 176.789062 -262.625 182.9375 -257.632812 188.65625 -252.03125 C 194.382812 -246.425781 199.800781 -240.703125 204.90625 -234.859375 L 197.25 -228.296875 C 193.832031 -229.515625 190.601562 -231.398438 187.5625 -233.953125 C 184.519531 -236.503906 181.78125 -239.125 179.34375 -241.8125 L 177.15625 -239.25 C 180.320312 -235.59375 183.242188 -231.390625 185.921875 -226.640625 C 188.597656 -221.898438 189.9375 -216.972656 189.9375 -211.859375 L 185.921875 -205.28125 C 182.753906 -205.519531 178.796875 -207.40625 174.046875 -210.9375 C 169.296875 -214.46875 164.0625 -218.242188 158.34375 -222.265625 C 152.625 -226.285156 146.78125 -230 140.8125 -233.40625 C 134.84375 -236.8125 129.054688 -238.515625 123.453125 -238.515625 C 116.148438 -238.515625 109.632812 -236.6875 103.90625 -233.03125 C 98.1875 -229.382812 93.015625 -224.640625 88.390625 -218.796875 C 83.765625 -212.953125 79.804688 -206.253906 76.515625 -198.703125 C 73.234375 -191.148438 70.554688 -183.476562 68.484375 -175.6875 C 66.410156 -167.894531 64.828125 -160.285156 63.734375 -152.859375 C 62.640625 -145.429688 62.09375 -138.921875 62.09375 -133.328125 C 62.09375 -123.828125 63.613281 -113.351562 66.65625 -101.90625 C 69.707031 -90.457031 74.210938 -79.800781 80.171875 -69.9375 C 86.140625 -60.082031 93.503906 -51.867188 102.265625 -45.296875 C 111.035156 -38.722656 121.019531 -35.4375 132.21875 -35.4375 C 137.332031 -35.4375 142.628906 -35.984375 148.109375 -37.078125 C 153.585938 -38.171875 158.519531 -40.054688 162.90625 -42.734375 L 165.828125 -39.453125 C 156.578125 -32.390625 145.984375 -28.859375 134.046875 -28.859375 C 122.359375 -28.859375 111.644531 -31.65625 101.90625 -37.25 C 106.53125 -34.09375 111.644531 -31.78125 117.25 -30.3125 C 123.332031 -28.613281 129.421875 -27.765625 135.515625 -27.765625 C 146.710938 -27.765625 157.179688 -30.925781 166.921875 -37.25 L 170.21875 -32.515625 C 172.644531 -35.191406 175.6875 -37.804688 179.34375 -40.359375 C 183 -42.921875 186.773438 -44.441406 190.671875 -44.921875 Z M 56.609375 -112.140625 C 57.828125 -98.015625 61.96875 -84.5 69.03125 -71.59375 C 76.09375 -58.925781 85.347656 -48.695312 96.796875 -40.90625 C 85.347656 -48.945312 76.335938 -59.296875 69.765625 -71.953125 C 62.941406 -84.859375 58.554688 -98.253906 56.609375 -112.140625 Z M 56.609375 -112.140625 "/></g></g></g><g fill="#ff6100" fill-opacity="1"><g transform="translate(357.316819, 412.984754)"><g><path d="M 219.890625 12.78125 C 217.941406 12.78125 215.566406 11.988281 212.765625 10.40625 C 209.960938 8.820312 208.5625 6.816406 208.5625 4.390625 C 208.5625 0.242188 209.046875 -3.710938 210.015625 -7.484375 C 210.992188 -11.265625 211.726562 -15.101562 212.21875 -19 L 210.765625 -17.890625 L 206.375 2.921875 C 203.445312 -1.210938 201.984375 -5.351562 201.984375 -9.5 C 201.984375 -10.46875 202.226562 -11.441406 202.71875 -12.421875 C 198.09375 -10.222656 193.40625 -8.394531 188.65625 -6.9375 C 183.90625 -5.476562 178.972656 -4.75 173.859375 -4.75 C 160.710938 -4.75 148.351562 -6.453125 136.78125 -9.859375 C 125.21875 -13.265625 113.59375 -17.523438 101.90625 -22.640625 L 100.078125 -27.390625 C 88.390625 -32.265625 77.613281 -38.835938 67.75 -47.109375 C 57.894531 -55.390625 49.375 -64.828125 42.1875 -75.421875 C 35 -86.015625 29.394531 -97.398438 25.375 -109.578125 C 21.363281 -121.753906 19.359375 -134.175781 19.359375 -146.84375 C 19.359375 -157.800781 20.878906 -168.515625 23.921875 -178.984375 C 26.960938 -189.453125 31.53125 -199.191406 37.625 -208.203125 L 35.4375 -209.296875 C 29.59375 -200.285156 24.90625 -190.664062 21.375 -180.4375 C 17.84375 -170.207031 16.078125 -159.613281 16.078125 -148.65625 C 16.078125 -137.945312 17.535156 -127.171875 20.453125 -116.328125 C 23.378906 -105.492188 27.519531 -95.082031 32.875 -85.09375 C 38.226562 -75.113281 44.5625 -65.863281 51.875 -57.34375 C 59.175781 -49.3125 67.207031 -42.375 75.96875 -36.53125 C 67.445312 -41.882812 59.414062 -48.457031 51.875 -56.25 C 44.320312 -64.53125 37.804688 -73.597656 32.328125 -83.453125 C 26.847656 -93.316406 22.523438 -103.664062 19.359375 -114.5 C 16.191406 -125.34375 14.609375 -135.878906 14.609375 -146.109375 C 14.609375 -164.128906 18.6875 -180.75 26.84375 -195.96875 C 35 -211.1875 45.648438 -224.273438 58.796875 -235.234375 C 71.953125 -246.191406 86.867188 -254.773438 103.546875 -260.984375 C 120.234375 -267.191406 137.097656 -270.296875 154.140625 -270.296875 C 165.097656 -270.296875 175.628906 -268.832031 185.734375 -265.90625 C 195.835938 -262.988281 206.003906 -259.828125 216.234375 -256.421875 C 215.015625 -255.691406 214.34375 -254.71875 214.21875 -253.5 C 214.101562 -252.28125 213.921875 -251.117188 213.671875 -250.015625 C 213.429688 -248.921875 213.003906 -248.007812 212.390625 -247.28125 C 211.785156 -246.550781 210.507812 -246.1875 208.5625 -246.1875 C 205.394531 -246.1875 202.289062 -246.671875 199.25 -247.640625 C 196.207031 -248.617188 193.347656 -249.71875 190.671875 -250.9375 L 189.578125 -246.1875 C 191.273438 -245.695312 193.523438 -244.722656 196.328125 -243.265625 C 199.128906 -241.804688 201.929688 -240.160156 204.734375 -238.328125 C 207.535156 -236.503906 209.96875 -234.492188 212.03125 -232.296875 C 214.101562 -230.109375 215.140625 -228.039062 215.140625 -226.09375 C 215.140625 -223.175781 213.984375 -221.410156 211.671875 -220.796875 C 209.359375 -220.191406 207.101562 -219.890625 204.90625 -219.890625 C 197.601562 -219.890625 190.300781 -220.984375 183 -223.171875 C 175.695312 -225.367188 168.390625 -226.46875 161.078125 -226.46875 C 147.929688 -226.46875 135.269531 -224.640625 123.09375 -220.984375 C 110.914062 -217.328125 100.203125 -212.03125 90.953125 -205.09375 C 81.703125 -198.15625 74.273438 -189.632812 68.671875 -179.53125 C 63.066406 -169.425781 60.265625 -157.796875 60.265625 -144.640625 C 60.265625 -131.253906 63.550781 -118.65625 70.125 -106.84375 C 76.707031 -95.03125 85.171875 -84.675781 95.515625 -75.78125 C 105.867188 -66.894531 117.5 -59.894531 130.40625 -54.78125 C 143.3125 -49.675781 156.09375 -47.125 168.75 -47.125 C 169.726562 -47.125 171.25 -47.179688 173.3125 -47.296875 C 175.382812 -47.421875 177.640625 -47.484375 180.078125 -47.484375 C 183.484375 -47.484375 186.585938 -47.175781 189.390625 -46.5625 C 192.191406 -45.957031 193.710938 -44.679688 193.953125 -42.734375 C 190.546875 -42.242188 187.015625 -41.691406 183.359375 -41.078125 C 179.710938 -40.472656 176.179688 -40.171875 172.765625 -40.171875 C 162.785156 -40.171875 152.4375 -41.515625 141.71875 -44.203125 C 153.164062 -40.785156 164.613281 -39.078125 176.0625 -39.078125 C 178.738281 -39.078125 181.535156 -39.195312 184.453125 -39.4375 C 187.378906 -39.6875 190.179688 -40.054688 192.859375 -40.546875 L 196.515625 -36.15625 C 198.703125 -36.644531 200.523438 -36.945312 201.984375 -37.0625 C 203.453125 -37.1875 206.007812 -37.984375 209.65625 -39.453125 C 209.65625 -47.242188 210.019531 -54.851562 210.75 -62.28125 C 211.488281 -69.707031 211.859375 -77.316406 211.859375 -85.109375 L 211.859375 -90.21875 C 211.859375 -94.601562 211.550781 -99.289062 210.9375 -104.28125 C 210.332031 -109.269531 208.566406 -113.226562 205.640625 -116.15625 L 203.453125 -115.0625 C 205.890625 -109.457031 207.472656 -103.488281 208.203125 -97.15625 C 208.929688 -90.820312 209.296875 -84.492188 209.296875 -78.171875 C 209.296875 -67.691406 208.566406 -57.582031 207.109375 -47.84375 C 207.835938 -55.882812 208.203125 -63.921875 208.203125 -71.953125 C 208.203125 -73.660156 208.019531 -77.007812 207.65625 -82 C 207.289062 -86.988281 206.738281 -92.101562 206 -97.34375 C 205.269531 -102.582031 204.359375 -107.269531 203.265625 -111.40625 C 202.171875 -115.539062 201.015625 -117.609375 199.796875 -117.609375 C 193.953125 -117.609375 188.046875 -118.09375 182.078125 -119.0625 C 176.117188 -120.039062 170.21875 -120.53125 164.375 -120.53125 L 162.546875 -120.53125 L 152.6875 -120.171875 C 152.6875 -120.898438 152.625 -121.75 152.5 -122.71875 C 152.375 -123.695312 152.3125 -124.675781 152.3125 -125.65625 C 152.3125 -127.601562 152.675781 -129.425781 153.40625 -131.125 C 154.132812 -132.832031 155.84375 -133.6875 158.53125 -133.6875 L 162.90625 -133.328125 L 162.90625 -137.703125 C 159.5 -138.679688 156.03125 -140.265625 152.5 -142.453125 C 148.96875 -144.640625 147.203125 -147.804688 147.203125 -151.953125 C 147.203125 -154.867188 148.785156 -157.179688 151.953125 -158.890625 C 155.117188 -160.597656 158.832031 -161.875 163.09375 -162.71875 C 167.351562 -163.570312 171.550781 -164.117188 175.6875 -164.359375 C 179.832031 -164.609375 183 -164.734375 185.1875 -164.734375 C 207.34375 -164.734375 224.082031 -159.007812 235.40625 -147.5625 C 246.738281 -136.125 252.40625 -119.320312 252.40625 -97.15625 C 252.40625 -82.550781 251.1875 -68.003906 248.75 -53.515625 C 246.3125 -39.023438 245.09375 -24.472656 245.09375 -9.859375 C 245.09375 -6.691406 244.664062 -3.769531 243.8125 -1.09375 C 242.957031 1.582031 240.582031 2.921875 236.6875 2.921875 L 238.515625 -23.375 L 235.234375 1.828125 C 234.503906 1.828125 233.769531 1.882812 233.03125 2 C 232.300781 2.125 231.570312 2.1875 230.84375 2.1875 C 230.363281 2.1875 230 2.125 229.75 2 C 229.507812 1.882812 229.144531 1.828125 228.65625 1.828125 L 228.65625 7.3125 C 226.707031 10.957031 223.785156 12.78125 219.890625 12.78125 Z M 203.453125 -16.078125 C 199.066406 -15.828125 194.742188 -15.335938 190.484375 -14.609375 C 186.222656 -13.878906 181.898438 -13.515625 177.515625 -13.515625 C 160.222656 -13.515625 143.054688 -16.375 126.015625 -22.09375 C 108.972656 -27.820312 93.445312 -35.859375 79.4375 -46.203125 C 65.4375 -56.554688 53.445312 -69.035156 43.46875 -83.640625 C 36.40625 -94.117188 31.171875 -105.441406 27.765625 -117.609375 C 31.171875 -103.734375 36.890625 -91.195312 44.921875 -80 C 55.398438 -64.894531 68.1875 -52.226562 83.28125 -42 C 98.375 -31.78125 115.050781 -24.113281 133.3125 -19 C 151.582031 -13.882812 169.972656 -11.328125 188.484375 -11.328125 L 190.671875 -11.328125 C 193.109375 -11.328125 195.421875 -11.566406 197.609375 -12.046875 C 199.796875 -12.535156 201.742188 -13.878906 203.453125 -16.078125 Z M 66.109375 -94.234375 L 66.109375 -93.515625 C 66.109375 -91.078125 67.691406 -88.148438 70.859375 -84.734375 C 74.023438 -81.328125 77.675781 -77.976562 81.8125 -74.6875 C 85.957031 -71.40625 90.035156 -68.363281 94.046875 -65.5625 C 98.066406 -62.757812 101.050781 -60.875 103 -59.90625 C 100.8125 -61.601562 97.953125 -63.789062 94.421875 -66.46875 C 90.890625 -69.15625 87.296875 -72.082031 83.640625 -75.25 C 79.992188 -78.414062 76.523438 -81.640625 73.234375 -84.921875 C 69.941406 -88.210938 67.566406 -91.316406 66.109375 -94.234375 Z M 214.40625 -38.71875 C 214.894531 -44.320312 215.625 -49.738281 216.59375 -54.96875 C 217.570312 -60.207031 218.0625 -65.628906 218.0625 -71.234375 C 218.0625 -74.640625 217.9375 -77.925781 217.6875 -81.09375 C 217.445312 -84.257812 216.960938 -87.546875 216.234375 -90.953125 C 216.234375 -82.179688 216.109375 -73.410156 215.859375 -64.640625 C 215.617188 -55.878906 214.894531 -47.238281 213.6875 -38.71875 Z M 245.453125 -81.8125 C 242.535156 -74.507812 241.195312 -67.328125 241.4375 -60.265625 C 241.6875 -53.691406 241.320312 -47.117188 240.34375 -40.546875 C 241.5625 -47.117188 242.535156 -53.816406 243.265625 -60.640625 C 244.242188 -67.703125 244.972656 -74.757812 245.453125 -81.8125 Z M 25.5625 -128.203125 C 26.300781 -124.554688 27.035156 -121.023438 27.765625 -117.609375 C 27.035156 -121.023438 26.300781 -124.554688 25.5625 -128.203125 Z M 25.203125 -132.21875 C 25.441406 -130.757812 25.5625 -129.421875 25.5625 -128.203125 C 25.320312 -129.421875 25.203125 -130.757812 25.203125 -132.21875 Z M 25.203125 -132.21875 "/></g></g></g></svg>